<svg xmlns="http://www.w3.org/2000/svg" width="24" height="24"  viewBox="0 0 24 24"><g transform="matrix(1 0 0 1 0 0)"  ><g style=""   ><g transform="matrix(1 0 0 1 12 12)"  ><path style="stroke: none; stroke-width: 1; stroke-dasharray: none; stroke-linecap: butt; stroke-dashoffset: 0; stroke-linejoin: miter; stroke-miterlimit: 4; fill: rgb(23,162,168); fill-rule: nonzero; opacity: 1;"  transform=" translate(-12, -12)" d="M 21.293 6.29295 C 21.6835 5.90243 22.3165 5.90243 22.707 6.29295 C 23.0975 6.68348 23.0975 7.31649 22.707 7.70702 L 14.207 16.207 C 13.8165 16.5975 13.1835 16.5975 12.793 16.207 L 8.49999 11.914 L 2.70702 17.707 C 2.31649 18.0975 1.68348 18.0975 1.29295 17.707 C 0.90243 17.3165 0.90243 16.6835 1.29295 16.293 L 7.79295 9.79295 L 7.86913 9.72459 C 8.2619 9.40424 8.8409 9.42684 9.20702 9.79295 L 13.5 14.0859 L 21.293 6.29295 Z" stroke-linecap="round" /></g><g transform="matrix(1 0 0 1 19 10)"  ><path style="stroke: none; stroke-width: 1; stroke-dasharray: none; stroke-linecap: butt; stroke-dashoffset: 0; stroke-linejoin: miter; stroke-miterlimit: 4; fill: rgb(23,162,168); fill-rule: nonzero; opacity: 1;"  transform=" translate(-19, -10)" d="M 21 13 L 21 8 L 16 8 C 15.4477 8 15 7.55228 15 7 C 15 6.44772 15.4477 6 16 6 L 22 6 L 22.1025 6.00488 C 22.6067 6.05621 23 6.48232 23 7 L 23 13 C 23 13.5523 22.5523 14 22 14 C 21.4477 14 21 13.5523 21 13 Z" stroke-linecap="round" /></g></g></g></svg>