<svg xmlns="http://www.w3.org/2000/svg" width="16" height="16"  viewBox="0 0 16 16"><g transform="matrix(1 0 0 1 0 0)"  ><g style=""   ><g transform="matrix(0.67 0 0 0.67 8 12)"  ><path style="stroke: none; stroke-width: 1; stroke-dasharray: none; stroke-linecap: butt; stroke-dashoffset: 0; stroke-linejoin: miter; stroke-miterlimit: 4; fill: rgb(255,255,255); fill-rule: nonzero; opacity: 1;"  transform=" translate(-12, -18)" d="M 2 19 L 2 15 C 2 14.4477 2.44772 14 3 14 C 3.55228 14 4 14.4477 4 15 L 4 19 L 4.00488 19.0986 C 4.02757 19.3276 4.12883 19.5429 4.29297 19.707 C 4.48051 19.8946 4.73478 20 5 20 L 19 20 C 19.2652 20 19.5195 19.8946 19.707 19.707 C 19.8946 19.5195 20 19.2652 20 19 L 20 15 C 20 14.4477 20.4477 14 21 14 C 21.5523 14 22 14.4477 22 15 L 22 19 C 22 19.7957 21.6837 20.5585 21.1211 21.1211 C 20.5585 21.6837 19.7957 22 19 22 L 5 22 C 4.20435 22 3.44152 21.6837 2.87891 21.1211 C 2.38671 20.6289 2.08291 19.9835 2.01465 19.2969 L 2 19 Z" stroke-linecap="round" /></g><g transform="matrix(0.67 0 0 0.67 8 8.33)"  ><path style="stroke: none; stroke-width: 1; stroke-dasharray: none; stroke-linecap: butt; stroke-dashoffset: 0; stroke-linejoin: miter; stroke-miterlimit: 4; fill: rgb(255,255,255); fill-rule: nonzero; opacity: 1;"  transform=" translate(-12, -12.5)" d="M 16.3691 9.22462 C 16.7619 8.90427 17.3409 8.92686 17.707 9.29298 C 18.0731 9.65909 18.0957 10.2381 17.7754 10.6309 L 17.707 10.707 L 12.707 15.707 C 12.3165 16.0976 11.6835 16.0976 11.293 15.707 L 6.29297 10.707 L 6.22461 10.6309 C 5.90426 10.2381 5.92685 9.65909 6.29297 9.29298 C 6.65909 8.92686 7.23809 8.90427 7.63086 9.22462 L 7.70703 9.29298 L 12 13.5859 L 16.293 9.29298 L 16.3691 9.22462 Z" stroke-linecap="round" /></g><g transform="matrix(0.67 0 0 0.67 8 6)"  ><path style="stroke: none; stroke-width: 1; stroke-dasharray: none; stroke-linecap: butt; stroke-dashoffset: 0; stroke-linejoin: miter; stroke-miterlimit: 4; fill: rgb(255,255,255); fill-rule: nonzero; opacity: 1;"  transform=" translate(-12, -9)" d="M 11 15 L 11 3 C 11 2.44772 11.4477 2 12 2 C 12.5523 2 13 2.44772 13 3 L 13 15 C 13 15.5523 12.5523 16 12 16 C 11.4477 16 11 15.5523 11 15 Z" stroke-linecap="round" /></g></g></g></svg>