<svg xmlns="http://www.w3.org/2000/svg" width="16" height="16"  viewBox="0 0 16 16"><g transform="matrix(1 0 0 1 0 0)"  ><g style=""   ><g transform="matrix(0.67 0 0 0.67 8 11)"  ><path style="stroke: none; stroke-width: 1; stroke-dasharray: none; stroke-linecap: butt; stroke-dashoffset: 0; stroke-linejoin: miter; stroke-miterlimit: 4; fill: rgb(87,94,107); fill-rule: nonzero; opacity: 1;"  transform=" translate(-12, -16.5)" d="M 20 13 C 20 12.4477 19.5523 12 19 12 L 5 12 C 4.44772 12 4 12.4477 4 13 L 4 20 C 4 20.5523 4.44772 21 5 21 L 19 21 C 19.5523 21 20 20.5523 20 20 L 20 13 Z M 22 20 C 22 21.6569 20.6569 23 19 23 L 5 23 C 3.34315 23 2 21.6569 2 20 L 2 13 C 2 11.3431 3.34315 10 5 10 L 19 10 C 20.6569 10 22 11.3431 22 13 L 22 20 Z" stroke-linecap="round" /></g><g transform="matrix(0.67 0 0 0.67 8 4.33)"  ><path style="stroke: none; stroke-width: 1; stroke-dasharray: none; stroke-linecap: butt; stroke-dashoffset: 0; stroke-linejoin: miter; stroke-miterlimit: 4; fill: rgb(87,94,107); fill-rule: nonzero; opacity: 1;"  transform=" translate(-12, -6.5)" d="M 16 11 L 16 7 C 16 5.93913 15.5783 4.92202 14.8281 4.17188 C 14.078 3.42173 13.0609 3 12 3 C 10.9391 3 9.92202 3.42173 9.17188 4.17188 C 8.42173 4.92202 8 5.93913 8 7 L 8 11 C 8 11.5523 7.55228 12 7 12 C 6.44772 12 6 11.5523 6 11 L 6 7 C 6 5.4087 6.63259 3.88303 7.75781 2.75781 C 8.88303 1.63259 10.4087 1 12 1 C 13.5913 1 15.117 1.63259 16.2422 2.75781 C 17.3674 3.88303 18 5.4087 18 7 L 18 11 C 18 11.5523 17.5523 12 17 12 C 16.4477 12 16 11.5523 16 11 Z" stroke-linecap="round" /></g></g></g></svg>