<svg xmlns="http://www.w3.org/2000/svg" width="20" height="20"  viewBox="0 0 20 20"><g transform="matrix(1 0 0 1 0 0)"  ><g style=""   ><g transform="matrix(0.83 0 0 0.83 10 17.92)"  ><path style="stroke: none; stroke-width: 1; stroke-dasharray: none; stroke-linecap: butt; stroke-dashoffset: 0; stroke-linejoin: miter; stroke-miterlimit: 4; fill: rgb(87,94,107); fill-rule: nonzero; opacity: 1;"  transform=" translate(-12, -21.5)" d="M 12.9213 20.4141 C 13.2177 20.0029 13.7834 19.875 14.2318 20.1338 C 14.6803 20.3927 14.8528 20.9469 14.6449 21.4092 L 14.5981 21.5 C 14.3348 21.9559 13.9562 22.3344 13.5004 22.5977 C 13.0445 22.8609 12.5268 22.9999 12.0004 23 C 11.4739 23 10.9564 22.8609 10.5004 22.5977 C 10.1013 22.3673 9.7614 22.0486 9.50626 21.667 L 9.40177 21.5 L 9.35489 21.4092 C 9.14705 20.9469 9.31958 20.3927 9.76798 20.1338 C 10.2164 19.875 10.7821 20.0029 11.0785 20.4141 L 11.1342 20.5 L 11.2065 20.6094 C 11.2861 20.7131 11.3864 20.8004 11.5004 20.8662 C 11.6523 20.9538 11.825 21 12.0004 21 C 12.1758 20.9999 12.3485 20.9539 12.5004 20.8662 C 12.6523 20.7785 12.7779 20.6519 12.8656 20.5 L 12.9213 20.4141 Z" stroke-linecap="round" /></g><g transform="matrix(0.83 0 0 0.83 10 7.92)"  ><path style="stroke: none; stroke-width: 1; stroke-dasharray: none; stroke-linecap: butt; stroke-dashoffset: 0; stroke-linejoin: miter; stroke-miterlimit: 4; fill: rgb(87,94,107); fill-rule: nonzero; opacity: 1;"  transform=" translate(-12, -9.5)" d="M 16.9998 8 C 16.9998 6.67409 16.4734 5.40249 15.5359 4.46484 C 14.5982 3.52716 13.3259 3 11.9998 3 C 10.6738 3.00007 9.40224 3.52722 8.46462 4.46484 C 7.52702 5.40251 6.99978 6.67398 6.99978 8 L 6.99587 8.43359 C 6.95306 10.5585 6.59338 12.0774 6.03298 13.2637 C 5.44252 14.5136 4.65897 15.3205 4.00075 16 L 19.9998 16 C 19.3402 15.3201 18.5577 14.5128 17.9676 13.2637 C 17.3696 11.998 16.9998 10.3541 16.9998 8 Z M 18.9998 8 C 18.9998 10.1447 19.3357 11.4789 19.7752 12.4092 C 20.1056 13.1086 20.5128 13.6223 20.9763 14.125 L 21.4578 14.6309 L 21.4793 14.6543 C 21.7401 14.941 21.9123 15.2971 21.9744 15.6797 C 22.0364 16.0621 21.9865 16.4543 21.8299 16.8086 C 21.6731 17.1629 21.4163 17.4644 21.0916 17.6758 C 20.8073 17.8608 20.4811 17.9708 20.1443 17.9951 L 19.9998 18 L 3.99978 18 C 3.61216 17.9997 3.23261 17.8866 2.90798 17.6748 C 2.58334 17.463 2.32705 17.1613 2.17068 16.8066 C 2.01435 16.452 1.96453 16.0593 2.02712 15.6768 C 2.08974 15.2944 2.26212 14.9386 2.52321 14.6523 L 2.54372 14.6299 L 3.02517 14.125 C 3.48799 13.6225 3.894 13.1086 4.22439 12.4092 C 4.63638 11.537 4.95735 10.3099 4.99587 8.39258 L 4.99978 8 C 4.99978 6.14348 5.7378 4.36256 7.05056 3.0498 C 8.36322 1.73734 10.1435 1.00007 11.9998 1 C 13.8562 1 15.6372 1.73713 16.95 3.0498 C 18.2627 4.36256 18.9998 6.14348 18.9998 8 Z" stroke-linecap="round" /></g></g></g></svg>