<svg xmlns="http://www.w3.org/2000/svg" width="22" height="22"  viewBox="0 0 22 22"><g transform="matrix(1 0 0 1 0 0)"  ><g style=""   ><g transform="matrix(0.92 0 0 0.92 11 11)"  ><path style="stroke: none; stroke-width: 1; stroke-dasharray: none; stroke-linecap: butt; stroke-dashoffset: 0; stroke-linejoin: miter; stroke-miterlimit: 4; fill: rgb(255,255,255); fill-rule: nonzero; opacity: 1;"  transform=" translate(-12, -12)" d="M 9.10059 1.00391 C 9.30178 1.02014 9.49627 1.08471 9.66699 1.19238 L 9.75 1.25 L 9.82812 1.31348 C 9.97922 1.44708 10.096 1.61531 10.168 1.80371 L 10.2031 1.90918 L 15 18.9775 L 16.627 13.1895 C 16.804 12.5584 17.1834 12.0028 17.7061 11.6074 C 18.2281 11.2125 18.865 10.9992 19.5195 11 L 22 11 C 22.5523 11 23 11.4477 23 12 C 23 12.5523 22.5523 13 22 13 L 19.5176 13 C 19.2992 12.9996 19.0863 13.0704 18.9121 13.2021 C 18.7815 13.301 18.6779 13.4302 18.6094 13.5771 L 18.5527 13.7305 L 16.2031 22.0908 L 16.168 22.1963 C 16.084 22.416 15.9392 22.6081 15.75 22.75 C 15.5336 22.9123 15.2705 23 15 23 C 14.7295 23 14.4664 22.9123 14.25 22.75 C 14.0608 22.6081 13.916 22.416 13.832 22.1963 L 13.7969 22.0908 L 8.99902 5.02148 L 7.37305 10.8105 C 7.19669 11.4391 6.81945 11.9925 6.2998 12.3877 C 5.78012 12.7828 5.14601 12.9981 4.49316 13 L 2 13 C 1.44772 13 1 12.5523 1 12 C 1 11.4477 1.44772 11 2 11 L 4.4873 11 C 4.70491 10.9993 4.91663 10.9276 5.08984 10.7959 C 5.26298 10.6642 5.38852 10.479 5.44727 10.2695 L 7.79688 1.90918 L 7.83203 1.80371 C 7.91597 1.58404 8.06078 1.39192 8.25 1.25 L 8.33301 1.19238 C 8.53204 1.06686 8.76332 1 9 1 L 9.10059 1.00391 Z" stroke-linecap="round" /></g></g></g></svg>