<svg xmlns="http://www.w3.org/2000/svg" width="16" height="16"  viewBox="0 0 16 16"><g transform="matrix(1 0 0 1 0 0)"  ><g style=""   ><g transform="matrix(0.67 0 0 0.67 8 8)"  ><path style="stroke: none; stroke-width: 1; stroke-dasharray: none; stroke-linecap: butt; stroke-dashoffset: 0; stroke-linejoin: miter; stroke-miterlimit: 4; fill: rgb(87,94,107); fill-rule: nonzero; opacity: 1;"  transform=" translate(-12, -12)" d="M 15.6602 1.05958 C 15.9161 0.967056 16.2008 0.98225 16.4473 1.10548 L 18 1.88184 L 19.5527 1.10548 L 19.6719 1.05567 C 19.9539 0.957645 20.2676 0.99016 20.5254 1.14942 C 20.8202 1.33163 21 1.65343 21 2.00001 L 21 22 C 21 22.3466 20.8202 22.6684 20.5254 22.8506 C 20.2306 23.0327 19.8626 23.0495 19.5527 22.8945 L 18 22.1182 L 16.4473 22.8945 C 16.1657 23.0353 15.8343 23.0353 15.5527 22.8945 L 14 22.1182 L 12.4473 22.8945 C 12.1657 23.0353 11.8343 23.0353 11.5527 22.8945 L 10 22.1182 L 8.44727 22.8945 C 8.20081 23.0178 7.91613 23.033 7.66016 22.9404 L 7.55273 22.8945 L 6 22.1182 L 4.44727 22.8945 C 4.13735 23.0495 3.76939 23.0327 3.47461 22.8506 C 3.17979 22.6684 3 22.3466 3 22 L 3 2.00001 L 3.00781 1.8711 C 3.04626 1.57493 3.21672 1.30881 3.47461 1.14942 C 3.76939 0.967342 4.13735 0.950521 4.44727 1.10548 L 6 1.88184 L 7.55273 1.10548 L 7.66016 1.05958 C 7.91613 0.967056 8.20081 0.98225 8.44727 1.10548 L 10 1.88184 L 11.5527 1.10548 L 11.6602 1.05958 C 11.9161 0.967056 12.2008 0.98225 12.4473 1.10548 L 14 1.88184 L 15.5527 1.10548 L 15.6602 1.05958 Z M 14.4473 3.89454 C 14.2008 4.01777 13.9161 4.03296 13.6602 3.94044 L 13.5527 3.89454 L 12 3.11817 L 10.4473 3.89454 C 10.2008 4.01777 9.91613 4.03296 9.66016 3.94044 L 9.55273 3.89454 L 8 3.11817 L 6.44727 3.89454 C 6.20081 4.01777 5.91613 4.03296 5.66016 3.94044 L 5.55273 3.89454 L 5 3.61817 L 5 20.3818 L 5.55273 20.1055 L 5.66016 20.0596 C 5.91613 19.9671 6.20081 19.9822 6.44727 20.1055 L 8 20.8818 L 9.55273 20.1055 L 9.66016 20.0596 C 9.91613 19.9671 10.2008 19.9822 10.4473 20.1055 L 12 20.8818 L 13.5527 20.1055 L 13.6602 20.0596 C 13.9161 19.9671 14.2008 19.9822 14.4473 20.1055 L 16 20.8818 L 17.5527 20.1055 L 17.6602 20.0596 C 17.9161 19.9671 18.2008 19.9822 18.4473 20.1055 L 19 20.3818 L 19 3.61817 L 18.4473 3.89454 C 18.2008 4.01777 17.9161 4.03296 17.6602 3.94044 L 17.5527 3.89454 L 16 3.11817 L 14.4473 3.89454 Z" stroke-linecap="round" /></g><g transform="matrix(0.67 0 0 0.67 8 8)"  ><path style="stroke: none; stroke-width: 1; stroke-dasharray: none; stroke-linecap: butt; stroke-dashoffset: 0; stroke-linejoin: miter; stroke-miterlimit: 4; fill: rgb(87,94,107); fill-rule: nonzero; opacity: 1;"  transform=" translate(-12, -12)" d="M 15 14 C 15 13.7348 14.8946 13.4805 14.707 13.293 C 14.5195 13.1054 14.2652 13 14 13 L 10 13 C 9.20435 13 8.44151 12.6837 7.87891 12.1211 C 7.38671 11.6289 7.08291 10.9835 7.01465 10.2969 L 7 10 C 7 9.20435 7.3163 8.44151 7.87891 7.87891 C 8.44151 7.3163 9.20435 7 10 7 L 16 7 C 16.5523 7 17 7.44772 17 8 C 17 8.55228 16.5523 9 16 9 L 10 9 C 9.73478 9 9.48051 9.10543 9.29297 9.29297 C 9.10543 9.48051 9 9.73478 9 10 L 9.00488 10.0986 C 9.02757 10.3276 9.12883 10.5429 9.29297 10.707 C 9.48051 10.8946 9.73478 11 10 11 L 14 11 C 14.7957 11 15.5585 11.3163 16.1211 11.8789 C 16.6837 12.4415 17 13.2043 17 14 C 17 14.7957 16.6837 15.5585 16.1211 16.1211 C 15.5585 16.6837 14.7957 17 14 17 L 8 17 C 7.44772 17 7 16.5523 7 16 C 7 15.4477 7.44772 15 8 15 L 14 15 C 14.2652 15 14.5195 14.8946 14.707 14.707 C 14.8946 14.5195 15 14.2652 15 14 Z" stroke-linecap="round" /></g><g transform="matrix(0.67 0 0 0.67 8 8)"  ><path style="stroke: none; stroke-width: 1; stroke-dasharray: none; stroke-linecap: butt; stroke-dashoffset: 0; stroke-linejoin: miter; stroke-miterlimit: 4; fill: rgb(87,94,107); fill-rule: nonzero; opacity: 1;"  transform=" translate(-12, -12)" d="M 11 17.5 L 11 6.5 C 11 5.94772 11.4477 5.5 12 5.5 C 12.5523 5.5 13 5.94772 13 6.5 L 13 17.5 C 13 18.0523 12.5523 18.5 12 18.5 C 11.4477 18.5 11 18.0523 11 17.5 Z" stroke-linecap="round" /></g></g></g></svg>