<svg xmlns="http://www.w3.org/2000/svg" width="22" height="22"  viewBox="0 0 22 22"><g transform="matrix(1 0 0 1 0 0)"  ><g style=""   ><g transform="matrix(0.92 0 0 0.92 11 11)"  ><path style="stroke: none; stroke-width: 1; stroke-dasharray: none; stroke-linecap: butt; stroke-dashoffset: 0; stroke-linejoin: miter; stroke-miterlimit: 4; fill: rgb(255,255,255); fill-rule: nonzero; opacity: 1;"  transform=" translate(-12, -12.01)" d="M 20.9972 12.0052 C 20.9972 11.82 20.9606 11.6362 20.8897 11.4651 C 20.8365 11.3368 20.7647 11.2167 20.6768 11.1097 L 20.5831 11.0071 L 12.9923 3.41632 C 12.8615 3.28546 12.7062 3.18154 12.5352 3.11066 C 12.3641 3.03973 12.1804 3.00326 11.9952 3.00323 C 11.81 3.00323 11.6263 3.03973 11.4552 3.11066 C 11.284 3.1816 11.1281 3.28526 10.9972 3.41632 L 10.9972 3.4173 L 3.40732 11.0071 L 3.40634 11.0071 C 3.27528 11.1381 3.17162 11.294 3.10068 11.4651 C 3.02975 11.6363 2.99326 11.8199 2.99326 12.0052 L 3.00009 12.1439 C 3.01372 12.2815 3.04752 12.417 3.10068 12.5452 C 3.17157 12.7161 3.27548 12.8714 3.40634 13.0023 L 10.9972 20.5931 L 11.0997 20.6868 C 11.2067 20.7747 11.3268 20.8465 11.4552 20.8997 C 11.6263 20.9706 11.81 21.0071 11.9952 21.0071 L 12.1339 21.0003 C 12.2715 20.9867 12.407 20.9529 12.5352 20.8997 C 12.7063 20.8288 12.8614 20.7241 12.9923 20.5931 L 12.9933 20.5931 L 20.5831 13.0032 L 20.5831 13.0023 L 20.6768 12.8997 C 20.7646 12.7928 20.8366 12.6734 20.8897 12.5452 C 20.9607 12.3741 20.9971 12.1904 20.9972 12.0052 Z M 22.9972 12.0052 C 22.9971 12.4532 22.908 12.897 22.7364 13.3109 C 22.5863 13.673 22.3753 14.0064 22.1124 14.2962 L 21.9972 14.4173 L 14.4073 22.0071 C 14.0907 22.324 13.7146 22.5749 13.3009 22.7464 C 12.9388 22.8965 12.5538 22.983 12.1632 23.0023 L 11.9952 23.0071 C 11.5471 23.0071 11.1035 22.918 10.6895 22.7464 C 10.2756 22.5748 9.89882 22.3242 9.58212 22.0071 L 9.58212 22.0062 L 1.99326 14.4173 C 1.67629 14.1006 1.42459 13.7247 1.25302 13.3109 C 1.10293 12.9488 1.01645 12.5638 0.997162 12.1732 L 0.993256 12.0052 C 0.993256 11.5572 1.08152 11.1134 1.25302 10.6995 C 1.40311 10.3374 1.61431 10.0039 1.87704 9.71417 L 1.99326 9.5921 L 9.58212 2.00323 L 9.70419 1.88702 C 9.99392 1.62429 10.3275 1.41309 10.6895 1.263 C 11.1034 1.0915 11.5472 1.00323 11.9952 1.00323 C 12.4432 1.00326 12.887 1.09144 13.3009 1.263 C 13.7148 1.43457 14.0907 1.68627 14.4073 2.00323 L 21.9962 9.5921 L 21.9972 9.5921 C 22.3142 9.9088 22.5648 10.2856 22.7364 10.6995 C 22.908 11.1134 22.9972 11.5571 22.9972 12.0052 Z" stroke-linecap="round" /></g></g></g></svg>