<svg xmlns="http://www.w3.org/2000/svg" width="16" height="16"  viewBox="0 0 16 16"><g transform="matrix(1 0 0 1 0 0)"  ><g style=""   ><g transform="matrix(0.67 0 0 0.67 8.06 7.94)"  ><path style="stroke: none; stroke-width: 1; stroke-dasharray: none; stroke-linecap: butt; stroke-dashoffset: 0; stroke-linejoin: miter; stroke-miterlimit: 4; fill: rgb(53,57,64); fill-rule: nonzero; opacity: 1;"  transform=" translate(-12.09, -11.91)" d="M 18.6435 2.04394 C 19.5186 1.77473 20.492 1.70229 21.29 2.03418 L 21.4473 2.10547 L 21.5849 2.18945 C 21.7152 2.28347 21.822 2.40761 21.8945 2.55273 L 21.9658 2.70996 C 22.2977 3.50802 22.2253 4.48138 21.956 5.35644 C 21.6576 6.32646 21.0711 7.3429 20.207 8.20703 L 17.0937 11.3193 L 18.7764 18.9853 L 18.7803 19.0039 L 18.8086 19.1797 C 18.9086 19.9886 18.558 20.6514 18.0185 21.1055 L 17.9004 21.2002 C 17.8303 21.2528 17.7532 21.2955 17.6719 21.3281 L 17.1719 21.5283 C 16.3923 21.8401 15.4504 21.7469 14.8213 21.0478 L 14.7002 20.9004 C 14.6882 20.8844 14.677 20.8672 14.666 20.8506 L 11.7187 16.3887 L 9.99999 17.5352 L 9.99999 20 C 9.99999 20.2652 9.89455 20.5195 9.70702 20.707 L 8.70702 21.707 C 8.49517 21.9189 8.19949 22.0246 7.90135 21.9951 C 7.60326 21.9656 7.33412 21.8039 7.16796 21.5547 L 5.27831 18.7207 L 2.4453 16.832 C 2.19605 16.6659 2.03442 16.3967 2.00487 16.0986 C 1.97535 15.8005 2.08111 15.5048 2.29296 15.293 L 3.29296 14.293 L 3.3662 14.2266 C 3.54415 14.0807 3.76789 14 3.99999 14 L 6.46483 14 L 7.61034 12.2803 L 3.1494 9.33398 C 3.13275 9.32298 3.11556 9.31178 3.0996 9.2998 C 2.26729 8.67532 2.13913 7.65947 2.47167 6.82812 L 2.54296 6.68554 L 2.84276 6.18554 C 3.2429 5.45257 4.00344 5.0895 4.82616 5.1914 L 4.99608 5.21972 L 5.01464 5.22363 L 12.6797 6.90527 L 15.793 3.79297 L 16.124 3.48144 C 16.9106 2.78648 17.7949 2.30506 18.6435 2.04394 Z M 20.1826 3.8164 C 19.9496 3.80372 19.6298 3.83347 19.2314 3.95605 C 18.5765 4.15761 17.8428 4.57122 17.207 5.20703 L 13.707 8.70703 C 13.4659 8.94814 13.1182 9.04967 12.7851 8.97656 L 4.6035 7.18066 L 4.57714 7.17773 C 4.57049 7.18994 4.56476 7.20292 4.5576 7.21484 L 4.31542 7.61816 C 4.30354 7.65906 4.30017 7.68498 4.30077 7.69824 L 9.55077 11.166 C 9.7727 11.3126 9.92773 11.5411 9.98046 11.8018 C 10.0332 12.0624 9.97954 12.3334 9.83202 12.5547 L 7.83202 15.5547 C 7.64655 15.8329 7.33434 16 6.99999 16 L 4.80272 16 L 6.55467 17.168 L 6.63378 17.2266 C 6.71017 17.2892 6.77703 17.3628 6.83202 17.4453 L 7.99999 19.1973 L 7.99999 17 C 7.99999 16.6656 8.1671 16.3534 8.4453 16.168 L 11.4453 14.168 L 11.5303 14.1172 C 11.734 14.0088 11.9701 13.9734 12.1982 14.0195 C 12.4589 14.0723 12.6874 14.2273 12.834 14.4492 L 16.3008 19.6992 C 16.3179 19.7001 16.3601 19.6993 16.4287 19.6719 L 16.7715 19.5342 C 16.8051 19.5 16.8186 19.4805 16.8213 19.4746 C 16.8231 19.4704 16.8245 19.4664 16.8252 19.46 C 16.8259 19.4527 16.8265 19.4325 16.8193 19.3965 L 16.8193 19.3955 L 15.0234 11.2148 C 14.9503 10.8818 15.0518 10.5341 15.293 10.293 L 18.793 6.79297 C 19.4288 6.15716 19.8424 5.42348 20.0439 4.76855 C 20.1667 4.36958 20.1954 4.04945 20.1826 3.8164 Z" stroke-linecap="round" /></g></g></g></svg>