<svg xmlns="http://www.w3.org/2000/svg" width="16" height="16"  viewBox="0 0 16 16"><g transform="matrix(1 0 0 1 0 0)"  ><g style=""   ><g transform="matrix(0.67 0 0 0.67 8 8)"  ><path style="stroke: none; stroke-width: 1; stroke-dasharray: none; stroke-linecap: butt; stroke-dashoffset: 0; stroke-linejoin: miter; stroke-miterlimit: 4; fill: rgb(23,25,28); fill-rule: nonzero; opacity: 1;"  transform=" translate(-12, -12)" d="M 18 4 C 18 3.44772 17.5523 3 17 3 L 7 3 C 6.44772 3 6 3.44772 6 4 L 6 20 C 6 20.5523 6.44772 21 7 21 L 17 21 C 17.5523 21 18 20.5523 18 20 L 18 4 Z M 20 20 C 20 21.6569 18.6569 23 17 23 L 7 23 C 5.34315 23 4 21.6569 4 20 L 4 4 C 4 2.34315 5.34315 1 7 1 L 17 1 C 18.6569 1 20 2.34315 20 4 L 20 20 Z" stroke-linecap="round" /></g><g transform="matrix(0.67 0 0 0.67 8 12)"  ><path style="stroke: none; stroke-width: 1; stroke-dasharray: none; stroke-linecap: butt; stroke-dashoffset: 0; stroke-linejoin: miter; stroke-miterlimit: 4; fill: rgb(23,25,28); fill-rule: nonzero; opacity: 1;"  transform=" translate(-12, -18)" d="M 12.0098 17 L 12.1123 17.0049 C 12.6165 17.0561 13.0098 17.4822 13.0098 18 C 13.0098 18.5178 12.6165 18.9439 12.1123 18.9951 L 12.0098 19 L 12 19 C 11.4477 19 11 18.5523 11 18 C 11 17.4477 11.4477 17 12 17 L 12.0098 17 Z" stroke-linecap="round" /></g></g></g></svg>