<svg xmlns="http://www.w3.org/2000/svg" width="20" height="20"  viewBox="0 0 20 20"><g transform="matrix(1 0 0 1 0 0)"  ><g style=""   ><g transform="matrix(0.83 0 0 0.83 10 10)"  ><path style="stroke: none; stroke-width: 1; stroke-dasharray: none; stroke-linecap: butt; stroke-dashoffset: 0; stroke-linejoin: miter; stroke-miterlimit: 4; fill: rgb(11,37,69); fill-rule: nonzero; opacity: 1;"  transform=" translate(-12, -12)" d="M 11 22 L 11 2 C 11 1.44772 11.4477 1 12 1 C 12.5523 1 13 1.44772 13 2 L 13 22 C 13 22.5523 12.5523 23 12 23 C 11.4477 23 11 22.5523 11 22 Z" stroke-linecap="round" /></g><g transform="matrix(0.83 0 0 0.83 10 10)"  ><path style="stroke: none; stroke-width: 1; stroke-dasharray: none; stroke-linecap: butt; stroke-dashoffset: 0; stroke-linejoin: miter; stroke-miterlimit: 4; fill: rgb(11,37,69); fill-rule: nonzero; opacity: 1;"  transform=" translate(-12, -12)" d="M 17 15.5 C 17 14.837 16.7364 14.2013 16.2676 13.7324 C 15.8573 13.3222 15.3194 13.0695 14.7471 13.0127 L 14.5 13 L 9.5 13 C 8.30653 13 7.16227 12.5256 6.31836 11.6816 C 5.52708 10.8904 5.06093 9.83506 5.00586 8.72266 L 5 8.5 C 5 7.30653 5.47445 6.16227 6.31836 5.31836 C 7.16227 4.47445 8.30653 4 9.5 4 L 17 4 C 17.5523 4 18 4.44772 18 5 C 18 5.55228 17.5523 6 17 6 L 9.5 6 C 8.83696 6 8.20126 6.26358 7.73242 6.73242 C 7.26358 7.20126 7 7.83696 7 8.5 L 7.0127 8.74707 C 7.06952 9.31937 7.32219 9.85735 7.73242 10.2676 C 8.20126 10.7364 8.83696 11 9.5 11 L 14.5 11 L 14.7227 11.0059 C 15.8351 11.0609 16.8904 11.5271 17.6816 12.3184 C 18.5256 13.1623 19 14.3065 19 15.5 C 19 16.6935 18.5256 17.8377 17.6816 18.6816 C 16.8904 19.4729 15.8351 19.9391 14.7227 19.9941 L 14.5 20 L 6 20 C 5.44772 20 5 19.5523 5 19 C 5 18.4477 5.44772 18 6 18 L 14.5 18 L 14.7471 17.9873 C 15.3194 17.9305 15.8573 17.6778 16.2676 17.2676 C 16.7364 16.7987 17 16.163 17 15.5 Z" stroke-linecap="round" /></g></g></g></svg>