<svg xmlns="http://www.w3.org/2000/svg" width="16" height="16"  viewBox="0 0 16 16"><g transform="matrix(1 0 0 1 0 0)"  ><g style=""   ><g transform="matrix(0.67 0 0 0.67 11.33 3.33)"  ><path style="stroke: none; stroke-width: 1; stroke-dasharray: none; stroke-linecap: butt; stroke-dashoffset: 0; stroke-linejoin: miter; stroke-miterlimit: 4; fill: rgb(87,94,107); fill-rule: nonzero; opacity: 1;"  transform=" translate(-17, -5)" d="M 13 6 L 13 2 C 13 1.44772 13.4477 1 14 1 C 14.5523 1 15 1.44772 15 2 L 15 6 C 15 6.26522 15.1054 6.51949 15.293 6.70703 C 15.4805 6.89457 15.7348 7 16 7 L 20 7 C 20.5523 7 21 7.44772 21 8 C 21 8.55228 20.5523 9 20 9 L 16 9 C 15.2044 9 14.4415 8.6837 13.8789 8.12109 C 13.3163 7.55848 13 6.79565 13 6 Z" stroke-linecap="round" /></g><g transform="matrix(0.67 0 0 0.67 8 8)"  ><path style="stroke: none; stroke-width: 1; stroke-dasharray: none; stroke-linecap: butt; stroke-dashoffset: 0; stroke-linejoin: miter; stroke-miterlimit: 4; fill: rgb(87,94,107); fill-rule: nonzero; opacity: 1;"  transform=" translate(-12, -12)" d="M 3 7 L 3 4 C 3 3.20435 3.3163 2.44152 3.87891 1.87891 C 4.44152 1.3163 5.20435 1 6 1 L 15 1 L 15.0986 1.00488 C 15.3276 1.02757 15.5429 1.12883 15.707 1.29297 L 20.707 6.29297 C 20.8946 6.48051 21 6.73478 21 7 L 21 20 C 21 20.7957 20.6837 21.5585 20.1211 22.1211 C 19.5585 22.6837 18.7957 23 18 23 L 5.99219 23 C 5.46697 22.9986 4.9516 22.8589 4.49707 22.5957 C 4.09931 22.3654 3.76029 22.0477 3.50586 21.667 L 3.40234 21.5 L 3.35547 21.4092 C 3.14751 20.9469 3.31925 20.3928 3.76758 20.1338 C 4.21593 19.8749 4.78162 20.0031 5.07812 20.4141 L 5.13379 20.5 L 5.20703 20.6084 C 5.28646 20.7119 5.38537 20.7994 5.49902 20.8652 C 5.65043 20.9529 5.82212 20.9995 5.99707 21 L 18 21 C 18.2652 21 18.5195 20.8946 18.707 20.707 C 18.8946 20.5195 19 20.2652 19 20 L 19 7.41406 L 14.5859 3 L 6 3 C 5.73478 3 5.48051 3.10543 5.29297 3.29297 C 5.10543 3.48051 5 3.73478 5 4 L 5 7 C 5 7.55228 4.55228 8 4 8 C 3.44772 8 3 7.55228 3 7 Z" stroke-linecap="round" /></g><g transform="matrix(0.67 0 0 0.67 5.5 11.5)"  ><path style="stroke: none; stroke-width: 1; stroke-dasharray: none; stroke-linecap: butt; stroke-dashoffset: 0; stroke-linejoin: miter; stroke-miterlimit: 4; fill: rgb(87,94,107); fill-rule: nonzero; opacity: 1;"  transform=" translate(-8.25, -17.25)" d="M 6.79298 15.793 C 7.15909 15.4269 7.7381 15.4043 8.13087 15.7246 L 8.20704 15.793 L 9.70704 17.293 L 9.7754 17.3692 C 10.0958 17.7619 10.0732 18.3409 9.70704 18.707 C 9.34093 19.0732 8.76192 19.0958 8.36915 18.7754 L 8.29298 18.707 L 6.79298 17.207 L 6.72462 17.1309 C 6.40427 16.7381 6.42686 16.1591 6.79298 15.793 Z" stroke-linecap="round" /></g><g transform="matrix(0.67 0 0 0.67 3.33 9.33)"  ><path style="stroke: none; stroke-width: 1; stroke-dasharray: none; stroke-linecap: butt; stroke-dashoffset: 0; stroke-linejoin: miter; stroke-miterlimit: 4; fill: rgb(87,94,107); fill-rule: nonzero; opacity: 1;"  transform=" translate(-5, -14)" d="M 7 14 C 7 12.8954 6.10457 12 5 12 C 3.89543 12 3 12.8954 3 14 C 3 15.1046 3.89543 16 5 16 C 6.10457 16 7 15.1046 7 14 Z M 9 14 C 9 16.2091 7.20914 18 5 18 C 2.79086 18 1 16.2091 1 14 C 1 11.7909 2.79086 10 5 10 C 7.20914 10 9 11.7909 9 14 Z" stroke-linecap="round" /></g></g></g></svg>