<svg xmlns="http://www.w3.org/2000/svg" width="14" height="14"  viewBox="0 0 14 14"><g transform="matrix(1 0 0 1 0 0)"  ><g style=""   ><g transform="matrix(0.58 0 0 0.58 7 7)"  ><path style="stroke: none; stroke-width: 1; stroke-dasharray: none; stroke-linecap: butt; stroke-dashoffset: 0; stroke-linejoin: miter; stroke-miterlimit: 4; fill: rgb(87,94,107); fill-rule: nonzero; opacity: 1;"  transform=" translate(-12, -12)" d="M 21.0139 1.0815 C 21.2433 1.00144 21.4882 0.978303 21.7277 1.01412 L 21.8322 1.03365 L 21.9348 1.06002 C 22.1382 1.1208 22.3261 1.2246 22.4865 1.36373 L 22.5646 1.43599 L 22.6369 1.51314 C 22.7759 1.6734 22.8789 1.86166 22.9396 2.0649 L 22.967 2.16842 L 22.9865 2.27291 C 23.0221 2.5118 22.9978 2.75588 22.9182 2.98482 L 22.9191 2.9858 L 16.4191 21.9858 L 16.4191 21.9868 C 16.3199 22.2761 16.1345 22.5284 15.8879 22.7094 C 15.6411 22.8905 15.3442 22.9916 15.0383 22.9995 C 14.7325 23.0073 14.4316 22.9214 14.176 22.7534 C 13.9521 22.6061 13.7723 22.4017 13.6545 22.1626 L 13.6076 22.0581 L 10.4279 14.1274 L 10.3859 14.0356 C 10.3391 13.9464 10.2787 13.8649 10.2072 13.7934 C 10.1117 13.698 9.99757 13.6229 9.87226 13.5727 L 9.87226 13.5717 L 1.94159 10.392 C 1.6577 10.2781 1.41543 10.0802 1.24726 9.82467 C 1.07907 9.56896 0.993328 9.26735 1.00116 8.96138 L 1.008 8.84713 C 1.03514 8.58217 1.13282 8.3286 1.2912 8.11275 L 1.36152 8.02291 C 1.53507 7.82065 1.76046 7.6684 2.01386 7.5815 L 2.01386 7.58052 L 21.0139 1.08052 L 21.0139 1.0815 Z M 3.93573 9.03658 L 10.6144 11.7153 L 10.6154 11.7153 C 10.9915 11.8658 11.3336 12.0912 11.6203 12.3774 C 11.8712 12.6279 12.0754 12.9206 12.2238 13.2417 L 12.2834 13.3803 L 12.2844 13.3823 L 14.9621 20.0629 L 20.6965 3.30318 L 3.93573 9.03658 Z" stroke-linecap="round" /></g><g transform="matrix(0.58 0 0 0.58 9.56 4.44)"  ><path style="stroke: none; stroke-width: 1; stroke-dasharray: none; stroke-linecap: butt; stroke-dashoffset: 0; stroke-linejoin: miter; stroke-miterlimit: 4; fill: rgb(87,94,107); fill-rule: nonzero; opacity: 1;"  transform=" translate(-16.38, -7.62)" d="M 21.1474 1.43996 C 21.5379 1.04963 22.171 1.04948 22.5614 1.43996 C 22.9517 1.83043 22.9517 2.46355 22.5614 2.85402 L 11.621 13.7935 L 11.5448 13.8618 C 11.1522 14.1819 10.573 14.1593 10.207 13.7935 C 9.81645 13.4029 9.81641 12.7689 10.207 12.3784 L 21.1474 1.43996 Z" stroke-linecap="round" /></g></g></g></svg>