<svg xmlns="http://www.w3.org/2000/svg" width="16" height="16"  viewBox="0 0 16 16"><g transform="matrix(1 0 0 1 0 0)"  ><g style=""   ><g transform="matrix(0.67 0 0 0.67 8 8)"  ><path style="stroke: none; stroke-width: 1; stroke-dasharray: none; stroke-linecap: butt; stroke-dashoffset: 0; stroke-linejoin: miter; stroke-miterlimit: 4; fill: rgb(211,47,47); fill-rule: nonzero; opacity: 1;"  transform=" translate(-12, -12)" d="M 6.29298 6.29298 C 6.65909 5.92686 7.2381 5.90427 7.63087 6.22462 L 7.70704 6.29298 L 17.707 16.293 L 17.7754 16.3692 C 18.0958 16.7619 18.0732 17.3409 17.707 17.707 C 17.3409 18.0732 16.7619 18.0958 16.3692 17.7754 L 16.293 17.707 L 6.29298 7.70704 L 6.22462 7.63087 C 5.90427 7.2381 5.92686 6.65909 6.29298 6.29298 Z" stroke-linecap="round" /></g><g transform="matrix(0.67 0 0 0.67 8 8)"  ><path style="stroke: none; stroke-width: 1; stroke-dasharray: none; stroke-linecap: butt; stroke-dashoffset: 0; stroke-linejoin: miter; stroke-miterlimit: 4; fill: rgb(211,47,47); fill-rule: nonzero; opacity: 1;"  transform=" translate(-12, -12)" d="M 16 7 C 16 6.44772 16.4477 6 17 6 C 17.5523 6 18 6.44772 18 7 L 18 17 C 18 17.5523 17.5523 18 17 18 L 7 18 C 6.44772 18 6 17.5523 6 17 C 6 16.4477 6.44772 16 7 16 L 16 16 L 16 7 Z" stroke-linecap="round" /></g></g></g></svg>