<svg xmlns="http://www.w3.org/2000/svg" viewBox="0 0 351 180"><g transform="matrix(1 0 0 1 0 0)"  ><g style=""   ><g transform="matrix(1 0 0 1 175.5 90)"  ><g style=""   ><g transform="matrix(1 0 0 1 0 42.5)"  ><line style="stroke: rgb(221,224,228); stroke-width: 1; stroke-dasharray: 3 3; stroke-linecap: butt; stroke-dashoffset: 0; stroke-linejoin: miter; stroke-miterlimit: 4; fill: none; fill-rule: nonzero; opacity: 1;"  x1="-170.5" y1="0" x2="170.5" y2="0" /></g><g transform="matrix(1 0 0 1 0 0)"  ><line style="stroke: rgb(221,224,228); stroke-width: 1; stroke-dasharray: 3 3; stroke-linecap: butt; stroke-dashoffset: 0; stroke-linejoin: miter; stroke-miterlimit: 4; fill: none; fill-rule: nonzero; opacity: 1;"  x1="-170.5" y1="0" x2="170.5" y2="0" /></g><g transform="matrix(1 0 0 1 0 -42.5)"  ><line style="stroke: rgb(221,224,228); stroke-width: 1; stroke-dasharray: 3 3; stroke-linecap: butt; stroke-dashoffset: 0; stroke-linejoin: miter; stroke-miterlimit: 4; fill: none; fill-rule: nonzero; opacity: 1;"  x1="-170.5" y1="0" x2="170.5" y2="0" /></g><g transform="matrix(1 0 0 1 0 -85)"  ><line style="stroke: rgb(221,224,228); stroke-width: 1; stroke-dasharray: 3 3; stroke-linecap: butt; stroke-dashoffset: 0; stroke-linejoin: miter; stroke-miterlimit: 4; fill: none; fill-rule: nonzero; opacity: 1;"  x1="-170.5" y1="0" x2="170.5" y2="0" /></g><g transform="matrix(1 0 0 1 0 85)"  ><line style="stroke: rgb(221,224,228); stroke-width: 1; stroke-dasharray: 3 3; stroke-linecap: butt; stroke-dashoffset: 0; stroke-linejoin: miter; stroke-miterlimit: 4; fill: none; fill-rule: nonzero; opacity: 1;"  x1="-170.5" y1="0" x2="170.5" y2="0" /></g><g transform="matrix(1 0 0 1 0 51)"  ><linearGradient id="SVGID_colorInflow_7558" gradientUnits="objectBoundingBox" gradientTransform="matrix(1 0 0 1 0 0)"  x1="0" y1="0" x2="0" y2="1"><stop offset="5%" style="stop-color:rgb(23,162,168);stop-opacity: 0.3"/><stop offset="95%" style="stop-color:rgb(23,162,168);stop-opacity: 0"/></linearGradient><path style="stroke: none; stroke-width: 2; stroke-dasharray: none; stroke-linecap: butt; stroke-dashoffset: 0; stroke-linejoin: miter; stroke-miterlimit: 4; fill: url(#SVGID_colorInflow_7558); fill-rule: nonzero; opacity: 1;"  transform=" translate(-175.5, -141)" d="M 5 107 C 23.944 112.667 42.889 118.333 61.833 124 C 80.778 129.667 99.722 141 118.667 141 C 137.611 141 156.556 127.74 175.5 127.74 C 194.444 127.74 213.389 142.87 232.333 142.87 C 251.278 142.87 270.222 138.903 289.167 134.37 C 308.111 129.837 327.056 122.753 346 115.67 L 346 175 C 327.056 175 308.111 175 289.167 175 C 270.222 175 251.278 175 232.333 175 C 213.389 175 194.444 175 175.5 175 C 156.556 175 137.611 175 118.667 175 C 99.722 175 80.778 175 61.833 175 C 42.889 175 23.944 175 5 175 Z" stroke-linecap="round" /></g><g transform="matrix(1 0 0 1 0 34.94)"  ><path style="stroke: rgb(23,162,168); stroke-width: 2; stroke-dasharray: none; stroke-linecap: butt; stroke-dashoffset: 0; stroke-linejoin: miter; stroke-miterlimit: 4; fill: none; fill-rule: nonzero; opacity: 1;"  transform=" translate(-175.5, -124.94)" d="M 5 107 C 23.944 112.667 42.889 118.333 61.833 124 C 80.778 129.667 99.722 141 118.667 141 C 137.611 141 156.556 127.74 175.5 127.74 C 194.444 127.74 213.389 142.87 232.333 142.87 C 251.278 142.87 270.222 138.903 289.167 134.37 C 308.111 129.837 327.056 122.753 346 115.67" stroke-linecap="round" /></g><g transform="matrix(1 0 0 1 0 1.7)"  ><path style="stroke: none; stroke-width: 2; stroke-dasharray: 4 4; stroke-linecap: butt; stroke-dashoffset: 0; stroke-linejoin: miter; stroke-miterlimit: 4; fill: rgb(255,255,255); fill-opacity: 0; fill-rule: nonzero; opacity: 1;"  transform=" translate(-175.5, -91.7)" d="M 5 134.2 C 23.944 142.717 42.889 151.234 61.833 151.234 C 80.778 151.234 99.722 8.4 118.667 8.4 C 137.611 8.4 156.556 108.564 175.5 108.564 C 194.444 108.564 213.389 93.4 232.333 93.4 C 251.278 93.4 270.222 110.4 289.167 110.4 C 308.111 110.4 327.056 106.15 346 101.9 L 346 175 C 327.056 175 308.111 175 289.167 175 C 270.222 175 251.278 175 232.333 175 C 213.389 175 194.444 175 175.5 175 C 156.556 175 137.611 175 118.667 175 C 99.722 175 80.778 175 61.833 175 C 42.889 175 23.944 175 5 175 Z" stroke-linecap="round" /></g><g transform="matrix(1 0 0 1 0 -10.18)"  ><path style="stroke: rgb(11,37,69); stroke-width: 2; stroke-dasharray: 4 4; stroke-linecap: butt; stroke-dashoffset: 0; stroke-linejoin: miter; stroke-miterlimit: 4; fill: none; fill-rule: nonzero; opacity: 1;"  transform=" translate(-175.5, -79.82)" d="M 5 134.2 C 23.944 142.717 42.889 151.234 61.833 151.234 C 80.778 151.234 99.722 8.4 118.667 8.4 C 137.611 8.4 156.556 108.564 175.5 108.564 C 194.444 108.564 213.389 93.4 232.333 93.4 C 251.278 93.4 270.222 110.4 289.167 110.4 C 308.111 110.4 327.056 106.15 346 101.9" stroke-linecap="round" /></g></g></g></g></g></svg>