<svg xmlns="http://www.w3.org/2000/svg" width="16" height="16"  viewBox="0 0 16 16"><g transform="matrix(1 0 0 1 0 0)"  ><g style=""   ><g transform="matrix(0.67 0 0 0.67 8 8)"  ><path style="stroke: none; stroke-width: 1; stroke-dasharray: none; stroke-linecap: butt; stroke-dashoffset: 0; stroke-linejoin: miter; stroke-miterlimit: 4; fill: rgb(148,163,184); fill-rule: nonzero; opacity: 1;"  transform=" translate(-12, -12)" d="M 21 12 C 21 7.02944 16.9706 3 12 3 C 7.02944 3 3 7.02944 3 12 C 3 16.9706 7.02944 21 12 21 C 16.9706 21 21 16.9706 21 12 Z M 23 12 C 23 18.0751 18.0751 23 12 23 C 5.92487 23 1 18.0751 1 12 C 1 5.92487 5.92487 1 12 1 C 18.0751 1 23 5.92487 23 12 Z" stroke-linecap="round" /></g><g transform="matrix(0.67 0 0 0.67 8 8)"  ><path style="stroke: none; stroke-width: 1; stroke-dasharray: none; stroke-linecap: butt; stroke-dashoffset: 0; stroke-linejoin: miter; stroke-miterlimit: 4; fill: rgb(148,163,184); fill-rule: nonzero; opacity: 1;"  transform=" translate(-12, -12)" d="M 14.9961 11.6758 C 14.9245 8.69287 13.8664 5.82525 12 3.51562 C 10.0661 5.90881 9 8.90114 9 12 L 9.00391 12.3242 C 9.07549 15.3069 10.1339 18.1739 12 20.4834 C 13.9336 18.0903 15 15.0986 15 12 L 14.9961 11.6758 Z M 16.9951 12.373 C 16.9026 16.2184 15.3834 19.8976 12.7246 22.6895 C 12.5359 22.8876 12.2737 23 12 23 C 11.7263 23 11.4641 22.8876 11.2754 22.6895 C 8.61661 19.8976 7.09737 16.2184 7.00488 12.373 L 7 12 C 7 8.02012 8.53074 4.1926 11.2754 1.31055 L 11.3496 1.24023 C 11.5299 1.08586 11.7604 1 12 1 C 12.2737 1 12.5359 1.11237 12.7246 1.31055 C 15.4693 4.1926 17 8.02012 17 12 L 16.9951 12.373 Z" stroke-linecap="round" /></g><g transform="matrix(0.67 0 0 0.67 8 8)"  ><path style="stroke: none; stroke-width: 1; stroke-dasharray: none; stroke-linecap: butt; stroke-dashoffset: 0; stroke-linejoin: miter; stroke-miterlimit: 4; fill: rgb(148,163,184); fill-rule: nonzero; opacity: 1;"  transform=" translate(-12, -12)" d="M 22 11 C 22.5523 11 23 11.4477 23 12 C 23 12.5523 22.5523 13 22 13 L 2 13 C 1.44772 13 1 12.5523 1 12 C 1 11.4477 1.44772 11 2 11 L 22 11 Z" stroke-linecap="round" /></g></g></g></svg>