<svg xmlns="http://www.w3.org/2000/svg" width="16" height="16"  viewBox="0 0 16 16"><g transform="matrix(1 0 0 1 0 0)"  ><g style=""   ><g transform="matrix(0.67 0 0 0.67 8 8)"  ><path style="stroke: none; stroke-width: 1; stroke-dasharray: none; stroke-linecap: butt; stroke-dashoffset: 0; stroke-linejoin: miter; stroke-miterlimit: 4; fill: rgb(87,94,107); fill-rule: nonzero; opacity: 1;"  transform=" translate(-12, -12)" d="M 12.0005 4.00061 C 14.3273 4.0007 16.6019 4.69176 18.5356 5.98596 C 20.3484 7.1993 21.7854 8.89154 22.6889 10.8707 L 22.8628 11.2711 L 22.8755 11.3043 C 23.0213 11.6972 23.0396 12.1245 22.9302 12.526 L 22.8755 12.6959 C 22.8714 12.707 22.8673 12.7182 22.8628 12.7291 C 21.9756 14.8803 20.4694 16.72 18.5356 18.0143 C 16.7228 19.2276 14.6102 19.9101 12.436 19.9908 L 12.0005 19.9996 C 9.67347 19.9996 7.39818 19.3086 5.46434 18.0143 C 3.65131 16.8008 2.21456 15.108 1.31102 13.1285 L 1.13719 12.7291 C 1.13268 12.7182 1.12861 12.707 1.12449 12.6959 C 0.957874 12.247 0.95793 11.7533 1.12449 11.3043 L 1.13719 11.2711 C 2.02437 9.11997 3.5306 7.28025 5.46434 5.98596 C 7.39818 4.69167 9.67347 4.00061 12.0005 4.00061 Z M 12.0005 6.00061 C 10.0696 6.00061 8.18132 6.57408 6.57664 7.64807 C 4.9822 8.71529 3.7384 10.2291 3.00047 11.9996 C 3.73839 13.7704 4.98196 15.2848 6.57664 16.3522 C 8.18132 17.4262 10.0696 17.9996 12.0005 17.9996 L 12.3618 17.9928 C 14.1659 17.9258 15.919 17.359 17.4233 16.3522 C 19.0179 15.2849 20.2606 13.7703 20.9985 11.9996 C 20.2606 10.2293 19.0177 8.71522 17.4233 7.64807 C 15.8188 6.57417 13.9312 6.0007 12.0005 6.00061 Z" stroke-linecap="round" /></g><g transform="matrix(0.67 0 0 0.67 8 8)"  ><path style="stroke: none; stroke-width: 1; stroke-dasharray: none; stroke-linecap: butt; stroke-dashoffset: 0; stroke-linejoin: miter; stroke-miterlimit: 4; fill: rgb(87,94,107); fill-rule: nonzero; opacity: 1;"  transform=" translate(-12, -12)" d="M 14 12 C 14 10.8954 13.1046 10 12 10 C 10.8954 10 10 10.8954 10 12 C 10 13.1046 10.8954 14 12 14 C 13.1046 14 14 13.1046 14 12 Z M 16 12 C 16 14.2091 14.2091 16 12 16 C 9.79086 16 8 14.2091 8 12 C 8 9.79086 9.79086 8 12 8 C 14.2091 8 16 9.79086 16 12 Z" stroke-linecap="round" /></g></g></g></svg>