<svg xmlns="http://www.w3.org/2000/svg" width="20" height="20"  viewBox="0 0 20 20"><g transform="matrix(1 0 0 1 0 0)"  ><g style=""   ><g transform="matrix(0.83 0 0 0.83 10 10)"  ><path style="stroke: none; stroke-width: 1; stroke-dasharray: none; stroke-linecap: butt; stroke-dashoffset: 0; stroke-linejoin: miter; stroke-miterlimit: 4; fill: rgb(23,25,28); fill-rule: nonzero; opacity: 1;"  transform=" translate(-12, -12)" d="M 16 17 L 16 8 L 7 8 C 6.44772 8 6 7.55228 6 7 C 6 6.44772 6.44772 6 7 6 L 17 6 L 17.1025 6.00488 C 17.6067 6.05621 18 6.48232 18 7 L 18 17 C 18 17.5523 17.5523 18 17 18 C 16.4477 18 16 17.5523 16 17 Z" stroke-linecap="round" /></g><g transform="matrix(0.83 0 0 0.83 10 10)"  ><path style="stroke: none; stroke-width: 1; stroke-dasharray: none; stroke-linecap: butt; stroke-dashoffset: 0; stroke-linejoin: miter; stroke-miterlimit: 4; fill: rgb(23,25,28); fill-rule: nonzero; opacity: 1;"  transform=" translate(-12, -12)" d="M 16.3692 6.22461 C 16.762 5.90426 17.341 5.92685 17.7071 6.29297 C 18.0732 6.65909 18.0958 7.23809 17.7754 7.63086 L 17.7071 7.70703 L 7.70708 17.707 C 7.31655 18.0976 6.68354 18.0976 6.29302 17.707 C 5.90249 17.3165 5.90249 16.6835 6.29302 16.293 L 16.293 6.29297 L 16.3692 6.22461 Z" stroke-linecap="round" /></g></g></g></svg>