<svg xmlns="http://www.w3.org/2000/svg" width="20" height="20"  viewBox="0 0 20 20"><g transform="matrix(1 0 0 1 0 0)"  ><g style=""   ><g transform="matrix(0.83 0 0 0.83 10 10)"  ><path style="stroke: none; stroke-width: 1; stroke-dasharray: none; stroke-linecap: butt; stroke-dashoffset: 0; stroke-linejoin: miter; stroke-miterlimit: 4; fill: rgb(87,94,107); fill-rule: nonzero; opacity: 1;"  transform=" translate(-12, -12)" d="M 21 7 C 21 6.44772 20.5523 6 20 6 L 4 6 C 3.44772 6 3 6.44772 3 7 L 3 17 C 3 17.5523 3.44772 18 4 18 L 20 18 C 20.5523 18 21 17.5523 21 17 L 21 7 Z M 23 17 C 23 18.6569 21.6569 20 20 20 L 4 20 C 2.34315 20 1 18.6569 1 17 L 1 7 C 1 5.34315 2.34315 4 4 4 L 20 4 C 21.6569 4 23 5.34315 23 7 L 23 17 Z" stroke-linecap="round" /></g><g transform="matrix(0.83 0 0 0.83 10 8.33)"  ><path style="stroke: none; stroke-width: 1; stroke-dasharray: none; stroke-linecap: butt; stroke-dashoffset: 0; stroke-linejoin: miter; stroke-miterlimit: 4; fill: rgb(87,94,107); fill-rule: nonzero; opacity: 1;"  transform=" translate(-12, -10)" d="M 22 9 C 22.5523 9 23 9.44772 23 10 C 23 10.5523 22.5523 11 22 11 L 2 11 C 1.44772 11 1 10.5523 1 10 C 1 9.44772 1.44772 9 2 9 L 22 9 Z" stroke-linecap="round" /></g></g></g></svg>