<svg xmlns="http://www.w3.org/2000/svg" width="20" height="20"  viewBox="0 0 20 20"><g transform="matrix(1 0 0 1 0 0)"  ><g style=""   ><g transform="matrix(0.83 0 0 0.83 10.42 10)"  ><path style="stroke: none; stroke-width: 1; stroke-dasharray: none; stroke-linecap: butt; stroke-dashoffset: 0; stroke-linejoin: miter; stroke-miterlimit: 4; fill: rgb(87,94,107); fill-rule: nonzero; opacity: 1;"  transform=" translate(-12.5, -12)" d="M 6.81104 10.9526 L 6.89405 11.2094 C 7.03539 11.7268 7.03538 12.2731 6.89405 12.7905 L 6.81104 13.0473 L 4.39795 19.5219 L 20.3276 11.9995 L 4.39698 4.477 L 6.81104 10.9526 Z M 23.0005 12.0004 C 23.0004 12.2844 22.919 12.5623 22.7671 12.8022 C 22.6341 13.0123 22.4516 13.1857 22.2358 13.3071 L 22.1411 13.3559 L 4.14893 21.851 L 4.14991 21.852 C 3.87956 21.983 3.57603 22.0295 3.27881 21.9858 C 2.98153 21.9421 2.70412 21.8102 2.48291 21.6069 C 2.26167 21.4035 2.10709 21.1378 2.03858 20.8452 C 1.97012 20.5527 1.99128 20.2466 2.09912 19.9663 L 4.93701 12.3491 L 4.96436 12.2631 C 5.01137 12.0908 5.01138 11.9091 4.96436 11.7368 L 4.93701 11.6508 L 2.09815 4.0356 L 2.06201 3.92915 C 1.98613 3.67828 1.97671 3.41123 2.03662 3.15474 L 2.0669 3.04536 C 2.14561 2.79554 2.28899 2.57006 2.48291 2.39204 L 2.56787 2.3188 C 2.77364 2.15658 3.0192 2.05107 3.27979 2.01314 L 3.39209 2.00142 C 3.65356 1.98331 3.91612 2.03334 4.15283 2.14888 L 4.15186 2.14986 L 22.1411 10.644 L 22.2358 10.6928 C 22.4208 10.7969 22.5816 10.939 22.7075 11.1098 L 22.7671 11.1977 L 22.8208 11.2895 C 22.9381 11.5075 23.0005 11.7518 23.0005 12.0004 Z" stroke-linecap="round" /></g><g transform="matrix(0.83 0 0 0.83 11.67 10)"  ><path style="stroke: none; stroke-width: 1; stroke-dasharray: none; stroke-linecap: butt; stroke-dashoffset: 0; stroke-linejoin: miter; stroke-miterlimit: 4; fill: rgb(87,94,107); fill-rule: nonzero; opacity: 1;"  transform=" translate(-14, -12)" d="M 22 11 C 22.5523 11 23 11.4477 23 12 C 23 12.5523 22.5523 13 22 13 L 6 13 C 5.44772 13 5 12.5523 5 12 C 5 11.4477 5.44772 11 6 11 L 22 11 Z" stroke-linecap="round" /></g></g></g></svg>