<svg xmlns="http://www.w3.org/2000/svg" width="20" height="20"  viewBox="0 0 20 20"><g transform="matrix(1 0 0 1 0 0)"  ><g style=""   ><g transform="matrix(0.83 0 0 0.83 9.99 9.99)"  ><path style="stroke: none; stroke-width: 1; stroke-dasharray: none; stroke-linecap: butt; stroke-dashoffset: 0; stroke-linejoin: miter; stroke-miterlimit: 4; fill: rgb(211,47,47); fill-rule: nonzero; opacity: 1;"  transform=" translate(-11.99, -11.99)" d="M 12.1881 1.99294 C 12.6497 2.02349 13.0992 2.16046 13.5006 2.39431 C 13.9579 2.66086 14.3367 3.04351 14.5982 3.50368 L 22.5963 17.4998 L 22.689 17.6736 C 22.8918 18.085 22.9974 18.5384 22.9976 18.9988 C 22.9978 19.5251 22.8601 20.0429 22.5972 20.4988 C 22.3343 20.9548 21.9552 21.3329 21.4996 21.5965 C 21.044 21.86 20.5269 21.9992 20.0006 21.9998 L 3.99958 21.9998 L 3.99958 21.9988 C 3.47393 22.0019 2.95667 21.868 2.49958 21.6082 C 2.03976 21.3468 1.65671 20.9684 1.3902 20.5115 C 1.12383 20.0547 0.983173 19.5354 0.982002 19.0066 C 0.980853 18.4791 1.11924 17.9608 1.38239 17.5037 L 1.38142 17.5037 L 9.38142 3.50368 C 9.64301 3.04336 10.0225 2.66089 10.48 2.39431 C 10.9385 2.12724 11.4593 1.98614 11.9898 1.98611 L 12.1881 1.99294 Z M 11.858 3.9949 C 11.7275 4.01227 11.6014 4.05521 11.4869 4.12185 C 11.334 4.21091 11.2069 4.33905 11.1197 4.49294 L 11.1187 4.49587 L 3.11872 18.4959 L 3.11579 18.4998 C 3.02763 18.6525 2.98161 18.8264 2.982 19.0027 C 2.98246 19.1787 3.02913 19.3516 3.11774 19.5037 C 3.20658 19.656 3.33459 19.7828 3.48786 19.8699 C 3.64103 19.9569 3.81464 20.0013 3.99079 19.9998 L 19.9986 19.9998 C 20.174 19.9996 20.3468 19.9538 20.4986 19.866 C 20.6504 19.7782 20.7762 19.6516 20.8638 19.4998 C 20.9515 19.3478 20.9977 19.1752 20.9976 18.9998 C 20.9976 18.8243 20.9516 18.6517 20.8638 18.4998 L 20.8619 18.4959 L 12.8619 4.49587 L 12.8599 4.49294 C 12.7727 4.33912 12.6465 4.21088 12.4937 4.12185 C 12.3409 4.03279 12.1667 3.98611 11.9898 3.98611 L 11.858 3.9949 Z" stroke-linecap="round" /></g><g transform="matrix(0.83 0 0 0.83 10 9.17)"  ><path style="stroke: none; stroke-width: 1; stroke-dasharray: none; stroke-linecap: butt; stroke-dashoffset: 0; stroke-linejoin: miter; stroke-miterlimit: 4; fill: rgb(211,47,47); fill-rule: nonzero; opacity: 1;"  transform=" translate(-12, -11)" d="M 11 13 L 11 9 C 11 8.44772 11.4477 8 12 8 C 12.5523 8 13 8.44772 13 9 L 13 13 C 13 13.5523 12.5523 14 12 14 C 11.4477 14 11 13.5523 11 13 Z" stroke-linecap="round" /></g><g transform="matrix(0.83 0 0 0.83 10 14.17)"  ><path style="stroke: none; stroke-width: 1; stroke-dasharray: none; stroke-linecap: butt; stroke-dashoffset: 0; stroke-linejoin: miter; stroke-miterlimit: 4; fill: rgb(211,47,47); fill-rule: nonzero; opacity: 1;"  transform=" translate(-12, -17)" d="M 12.0098 16 L 12.1123 16.0049 C 12.6165 16.0561 13.0098 16.4822 13.0098 17 C 13.0098 17.5178 12.6165 17.9439 12.1123 17.9951 L 12.0098 18 L 12 18 C 11.4477 18 11 17.5523 11 17 C 11 16.4477 11.4477 16 12 16 L 12.0098 16 Z" stroke-linecap="round" /></g></g></g></svg>