<svg xmlns="http://www.w3.org/2000/svg" width="20" height="20"  viewBox="0 0 20 20"><g transform="matrix(1 0 0 1 0 0)"  ><g style=""   ><g transform="matrix(0.83 0 0 0.83 10 13.75)"  ><path style="stroke: none; stroke-width: 1; stroke-dasharray: none; stroke-linecap: butt; stroke-dashoffset: 0; stroke-linejoin: miter; stroke-miterlimit: 4; fill: rgb(22,24,29); fill-rule: nonzero; opacity: 1;"  transform=" translate(-12, -16.5)" d="M 20 13 C 20 12.4477 19.5523 12 19 12 L 5 12 C 4.44772 12 4 12.4477 4 13 L 4 20 C 4 20.5523 4.44772 21 5 21 L 19 21 C 19.5523 21 20 20.5523 20 20 L 20 13 Z M 22 20 C 22 21.6569 20.6569 23 19 23 L 5 23 C 3.34315 23 2 21.6569 2 20 L 2 13 C 2 11.3431 3.34315 10 5 10 L 19 10 C 20.6569 10 22 11.3431 22 13 L 22 20 Z" stroke-linecap="round" /></g><g transform="matrix(0.83 0 0 0.83 9.96 5.41)"  ><path style="stroke: none; stroke-width: 1; stroke-dasharray: none; stroke-linecap: butt; stroke-dashoffset: 0; stroke-linejoin: miter; stroke-miterlimit: 4; fill: rgb(22,24,29); fill-rule: nonzero; opacity: 1;"  transform=" translate(-11.95, -6.5)" d="M 6 10.9998 L 6 6.99983 C 5.99879 5.51241 6.54995 4.07739 7.54688 2.97347 C 8.54419 1.86923 9.91705 1.17476 11.3975 1.02522 C 12.8777 0.875822 14.3607 1.28155 15.5586 2.16389 C 16.6816 2.99115 17.4791 4.18214 17.8184 5.52913 L 17.8799 5.80061 L 17.8955 5.90218 C 17.9457 6.40655 17.6061 6.87727 17.0986 6.9803 C 16.5912 7.08312 16.0956 6.7818 15.9453 6.29768 L 15.9199 6.19905 L 15.8789 6.01839 C 15.6528 5.12015 15.1209 4.32588 14.3721 3.77425 C 13.5735 3.18607 12.5845 2.91578 11.5977 3.01546 C 10.6109 3.11523 9.69604 3.57822 9.03125 4.31429 C 8.36659 5.05037 7.99904 6.00709 8 6.99886 L 8 10.9998 C 8 11.5521 7.55229 11.9998 7 11.9998 C 6.44772 11.9998 6 11.5521 6 10.9998 Z" stroke-linecap="round" /></g></g></g></svg>