<svg xmlns="http://www.w3.org/2000/svg" width="16" height="16"  viewBox="0 0 16 16"><g transform="matrix(1 0 0 1 0 0)"  ><g style=""   ><g transform="matrix(0.67 0 0 0.67 6 12)"  ><path style="stroke: none; stroke-width: 1; stroke-dasharray: none; stroke-linecap: butt; stroke-dashoffset: 0; stroke-linejoin: miter; stroke-miterlimit: 4; fill: rgb(30,33,40); fill-rule: nonzero; opacity: 1;"  transform=" translate(-9, -18)" d="M 15 21 L 15 19 C 15 18.2044 14.6837 17.4415 14.1211 16.8789 C 13.6289 16.3867 12.9835 16.0829 12.2969 16.0146 L 12 16 L 6 16 C 5.20435 16 4.44152 16.3163 3.87891 16.8789 C 3.3163 17.4415 3 18.2044 3 19 L 3 21 C 3 21.5523 2.55228 22 2 22 C 1.44772 22 1 21.5523 1 21 L 1 19 C 1 17.6739 1.52716 16.4025 2.46484 15.4648 C 3.40253 14.5272 4.67392 14 6 14 L 12 14 L 12.248 14.0059 C 13.4838 14.0672 14.6561 14.5858 15.5352 15.4648 C 16.4728 16.4025 17 17.6739 17 19 L 17 21 C 17 21.5523 16.5523 22 16 22 C 15.4477 22 15 21.5523 15 21 Z" stroke-linecap="round" /></g><g transform="matrix(0.67 0 0 0.67 11.67 4.67)"  ><path style="stroke: none; stroke-width: 1; stroke-dasharray: none; stroke-linecap: butt; stroke-dashoffset: 0; stroke-linejoin: miter; stroke-miterlimit: 4; fill: rgb(30,33,40); fill-rule: nonzero; opacity: 1;"  transform=" translate(-17.5, -7)" d="M 17.9961 7.00008 C 17.9961 6.33559 17.7757 5.6897 17.3691 5.16415 C 17.0132 4.70415 16.5321 4.35885 15.9863 4.16805 L 15.749 4.09579 L 15.6514 4.06551 C 15.1761 3.88941 14.9023 3.37825 15.0322 2.87704 C 15.1622 2.37596 15.6495 2.06289 16.1504 2.13973 L 16.251 2.16024 L 16.4502 2.2159 C 17.4406 2.51689 18.3146 3.11916 18.9502 3.94051 C 19.628 4.81649 19.9961 5.89248 19.9961 7.00008 C 19.9961 8.10769 19.628 9.18367 18.9502 10.0597 C 18.2723 10.9356 17.3232 11.562 16.251 11.8399 C 15.7164 11.9785 15.1709 11.6576 15.0322 11.1231 C 14.8936 10.5886 15.2145 10.043 15.749 9.90438 C 16.3923 9.7376 16.9624 9.36162 17.3691 8.83602 C 17.7758 8.31046 17.9961 7.66459 17.9961 7.00008 Z" stroke-linecap="round" /></g><g transform="matrix(0.67 0 0 0.67 13.67 12.04)"  ><path style="stroke: none; stroke-width: 1; stroke-dasharray: none; stroke-linecap: butt; stroke-dashoffset: 0; stroke-linejoin: miter; stroke-miterlimit: 4; fill: rgb(30,33,40); fill-rule: nonzero; opacity: 1;"  transform=" translate(-20.5, -18.06)" d="M 21 21.0001 L 21 19.0011 L 20.9893 18.7531 C 20.9411 18.1769 20.7275 17.6249 20.3711 17.1652 C 20.0147 16.7054 19.5334 16.3604 18.9873 16.1701 L 18.75 16.0978 L 18.6523 16.0675 C 18.1769 15.8919 17.9028 15.3813 18.0322 14.88 C 18.1617 14.3789 18.6485 14.0645 19.1494 14.1408 L 19.25 14.1622 L 19.4492 14.2179 C 20.4401 14.518 21.3158 15.1186 21.9521 15.9396 C 22.6308 16.8151 22.9991 17.8914 23 18.9992 L 23 21.0001 C 22.9999 21.5524 22.5522 22.0001 22 22.0001 C 21.4478 22.0001 21.0001 21.5524 21 21.0001 Z" stroke-linecap="round" /></g><g transform="matrix(0.67 0 0 0.67 6 4.67)"  ><path style="stroke: none; stroke-width: 1; stroke-dasharray: none; stroke-linecap: butt; stroke-dashoffset: 0; stroke-linejoin: miter; stroke-miterlimit: 4; fill: rgb(30,33,40); fill-rule: nonzero; opacity: 1;"  transform=" translate(-9, -7)" d="M 12 7 C 12 5.34315 10.6569 4 9 4 C 7.34315 4 6 5.34315 6 7 C 6 8.65685 7.34315 10 9 10 C 10.6569 10 12 8.65685 12 7 Z M 14 7 C 14 9.76142 11.7614 12 9 12 C 6.23858 12 4 9.76142 4 7 C 4 4.23858 6.23858 2 9 2 C 11.7614 2 14 4.23858 14 7 Z" stroke-linecap="round" /></g></g></g></svg>