<svg xmlns="http://www.w3.org/2000/svg" width="20" height="20"  viewBox="0 0 20 20"><g transform="matrix(1 0 0 1 0 0)"  ><g style=""   ><g transform="matrix(0.83 0 0 0.83 10 10)"  ><path style="stroke: none; stroke-width: 1; stroke-dasharray: none; stroke-linecap: butt; stroke-dashoffset: 0; stroke-linejoin: miter; stroke-miterlimit: 4; fill: rgb(23,25,28); fill-rule: nonzero; opacity: 1;"  transform=" translate(-12, -12)" d="M 17 4 C 17 3.73478 16.8946 3.48051 16.707 3.29297 C 16.5195 3.10543 16.2652 3 16 3 L 8 3 C 7.73478 3 7.48051 3.10543 7.29297 3.29297 C 7.10543 3.48051 7 3.73478 7 4 L 7 21 L 17 21 L 17 4 Z M 19 22 C 19 22.5523 18.5523 23 18 23 L 6 23 C 5.44772 23 5 22.5523 5 22 L 5 4 C 5 3.20435 5.3163 2.44152 5.87891 1.87891 C 6.44152 1.3163 7.20435 1 8 1 L 16 1 C 16.7956 1 17.5585 1.3163 18.1211 1.87891 C 18.6837 2.44152 19 3.20435 19 4 L 19 22 Z" stroke-linecap="round" /></g><g transform="matrix(0.83 0 0 0.83 3.33 14.17)"  ><path style="stroke: none; stroke-width: 1; stroke-dasharray: none; stroke-linecap: butt; stroke-dashoffset: 0; stroke-linejoin: miter; stroke-miterlimit: 4; fill: rgb(23,25,28); fill-rule: nonzero; opacity: 1;"  transform=" translate(-4, -17)" d="M 1 20 L 1 14 C 1 13.2044 1.3163 12.4415 1.87891 11.8789 C 2.44152 11.3163 3.20435 11 4 11 L 6 11 C 6.55228 11 7 11.4477 7 12 C 7 12.5523 6.55228 13 6 13 L 4 13 C 3.73478 13 3.48051 13.1054 3.29297 13.293 C 3.10543 13.4805 3 13.7348 3 14 L 3 20 L 3.00488 20.0986 C 3.02757 20.3276 3.12883 20.5429 3.29297 20.707 C 3.48051 20.8946 3.73478 21 4 21 L 6 21 C 6.55228 21 7 21.4477 7 22 C 7 22.5523 6.55228 23 6 23 L 4 23 C 3.20435 23 2.44152 22.6837 1.87891 22.1211 C 1.3163 21.5585 1 20.7956 1 20 Z" stroke-linecap="round" /></g><g transform="matrix(0.83 0 0 0.83 16.67 12.92)"  ><path style="stroke: none; stroke-width: 1; stroke-dasharray: none; stroke-linecap: butt; stroke-dashoffset: 0; stroke-linejoin: miter; stroke-miterlimit: 4; fill: rgb(23,25,28); fill-rule: nonzero; opacity: 1;"  transform=" translate(-20, -15.5)" d="M 21 20 L 21 11 C 21 10.7348 20.8946 10.4805 20.707 10.293 C 20.5195 10.1054 20.2652 10 20 10 L 18 10 C 17.4477 10 17 9.55228 17 9 C 17 8.44772 17.4477 8 18 8 L 20 8 C 20.7957 8 21.5585 8.3163 22.1211 8.87891 C 22.6837 9.44151 23 10.2043 23 11 L 23 20 C 23 20.7957 22.6837 21.5585 22.1211 22.1211 C 21.5585 22.6837 20.7957 23 20 23 L 18 23 C 17.4477 23 17 22.5523 17 22 C 17 21.4477 17.4477 21 18 21 L 20 21 C 20.2652 21 20.5195 20.8946 20.707 20.707 C 20.8946 20.5195 21 20.2652 21 20 Z" stroke-linecap="round" /></g><g transform="matrix(0.83 0 0 0.83 10 5)"  ><path style="stroke: none; stroke-width: 1; stroke-dasharray: none; stroke-linecap: butt; stroke-dashoffset: 0; stroke-linejoin: miter; stroke-miterlimit: 4; fill: rgb(23,25,28); fill-rule: nonzero; opacity: 1;"  transform=" translate(-12, -6)" d="M 14 5 C 14.5523 5 15 5.44772 15 6 C 15 6.55228 14.5523 7 14 7 L 10 7 C 9.44772 7 9 6.55228 9 6 C 9 5.44772 9.44772 5 10 5 L 14 5 Z" stroke-linecap="round" /></g><g transform="matrix(0.83 0 0 0.83 10 8.33)"  ><path style="stroke: none; stroke-width: 1; stroke-dasharray: none; stroke-linecap: butt; stroke-dashoffset: 0; stroke-linejoin: miter; stroke-miterlimit: 4; fill: rgb(23,25,28); fill-rule: nonzero; opacity: 1;"  transform=" translate(-12, -10)" d="M 14 9 C 14.5523 9 15 9.44772 15 10 C 15 10.5523 14.5523 11 14 11 L 10 11 C 9.44772 11 9 10.5523 9 10 C 9 9.44772 9.44772 9 10 9 L 14 9 Z" stroke-linecap="round" /></g><g transform="matrix(0.83 0 0 0.83 10 11.67)"  ><path style="stroke: none; stroke-width: 1; stroke-dasharray: none; stroke-linecap: butt; stroke-dashoffset: 0; stroke-linejoin: miter; stroke-miterlimit: 4; fill: rgb(23,25,28); fill-rule: nonzero; opacity: 1;"  transform=" translate(-12, -14)" d="M 14 13 C 14.5523 13 15 13.4477 15 14 C 15 14.5523 14.5523 15 14 15 L 10 15 C 9.44772 15 9 14.5523 9 14 C 9 13.4477 9.44772 13 10 13 L 14 13 Z" stroke-linecap="round" /></g><g transform="matrix(0.83 0 0 0.83 10 15)"  ><path style="stroke: none; stroke-width: 1; stroke-dasharray: none; stroke-linecap: butt; stroke-dashoffset: 0; stroke-linejoin: miter; stroke-miterlimit: 4; fill: rgb(23,25,28); fill-rule: nonzero; opacity: 1;"  transform=" translate(-12, -18)" d="M 14 17 C 14.5523 17 15 17.4477 15 18 C 15 18.5523 14.5523 19 14 19 L 10 19 C 9.44772 19 9 18.5523 9 18 C 9 17.4477 9.44772 17 10 17 L 14 17 Z" stroke-linecap="round" /></g></g></g></svg>