<svg xmlns="http://www.w3.org/2000/svg" width="32" height="32"  viewBox="0 0 32 32"><g transform="matrix(1 0 0 1 0 0)"  ><g style=""   ><g transform="matrix(1.33 0 0 1.33 16.03 15.97)"  ><path style="stroke: none; stroke-width: 1; stroke-dasharray: none; stroke-linecap: butt; stroke-dashoffset: 0; stroke-linejoin: miter; stroke-miterlimit: 4; fill: rgb(22,24,29); fill-rule: nonzero; opacity: 1;"  transform=" translate(-12.02, -11.98)" d="M 9 16.9998 C 9.00004 16.4695 9.2109 15.9608 9.58594 15.5858 C 9.961 15.2107 10.4696 14.9998 11 14.9998 L 11.1719 14.9998 L 11.2705 14.9949 C 11.4994 14.9722 11.7148 14.871 11.8789 14.7069 L 12.6934 13.8924 L 12.8008 13.7996 C 13.0644 13.6022 13.4117 13.5458 13.7285 13.6561 C 14.9045 14.0657 16.1853 14.0637 17.3604 13.6512 C 18.5353 13.2386 19.5355 12.4395 20.1973 11.3846 C 20.8591 10.3297 21.1438 9.081 21.0039 7.84358 C 20.864 6.60648 20.308 5.4535 19.4277 4.57307 C 18.5472 3.69257 17.3936 3.13683 16.1562 2.9969 C 14.9188 2.85704 13.6701 3.14076 12.6152 3.80256 C 11.5604 4.46434 10.7612 5.46456 10.3486 6.63948 C 9.9361 7.81449 9.93507 9.0953 10.3447 10.2713 C 10.4707 10.6335 10.3786 11.0363 10.1074 11.3074 L 3.29297 18.1209 C 3.10548 18.3084 3.00012 18.5629 3 18.828 L 3 20.9998 L 6 20.9998 L 6 19.9998 C 6.00004 19.4695 6.2109 18.9608 6.58594 18.5858 C 6.961 18.2107 7.46961 17.9998 8 17.9998 L 9 17.9998 L 9 16.9998 Z M 11 17.9998 C 11 18.5302 10.7891 19.0388 10.4141 19.4139 C 10.039 19.789 9.53043 19.9998 9 19.9998 L 8 19.9998 L 8 20.9998 C 8 21.5302 7.78909 22.0388 7.41406 22.4139 C 7.03899 22.789 6.53043 22.9998 6 22.9998 L 3 22.9998 C 2.46957 22.9998 1.96101 22.789 1.58594 22.4139 C 1.21091 22.0388 1 21.5302 1 20.9998 L 1 18.828 C 1.00017 18.0324 1.31631 17.2693 1.87891 16.7069 L 8.27051 10.3143 C 7.90643 8.88605 7.97053 7.377 8.46191 5.97737 C 9.02446 4.37508 10.1142 3.0107 11.5527 2.10823 C 12.9912 1.20591 14.6936 0.818888 16.3809 1.0096 C 18.0681 1.20038 19.6411 1.95737 20.8418 3.15803 C 22.0425 4.35873 22.8004 5.93169 22.9912 7.61897 C 23.1819 9.30624 22.7939 11.0087 21.8916 12.4471 C 20.9891 13.8856 19.6247 14.9754 18.0225 15.5379 C 16.6224 16.0294 15.1132 16.0928 13.6846 15.7283 L 13.293 16.1209 C 12.8008 16.6132 12.1554 16.9168 11.4688 16.9852 L 11.1719 16.9998 L 11 16.9998 L 11 17.9998 Z" stroke-linecap="round" /></g><g transform="matrix(1.33 0 0 1.33 22 10)"  ><path style="stroke: none; stroke-width: 1; stroke-dasharray: none; stroke-linecap: butt; stroke-dashoffset: 0; stroke-linejoin: miter; stroke-miterlimit: 4; fill: rgb(22,24,29); fill-rule: nonzero; opacity: 1;"  transform=" translate(-16.5, -7.5)" d="M 16.5 8 C 16.7761 8 17 7.77614 17 7.5 C 17 7.22386 16.7761 7 16.5 7 C 16.2239 7 16 7.22386 16 7.5 C 16 7.77614 16.2239 8 16.5 8 Z" stroke-linecap="round" /></g><g transform="matrix(1.33 0 0 1.33 22 10)"  ><path style="stroke: none; stroke-width: 1; stroke-dasharray: none; stroke-linecap: butt; stroke-dashoffset: 0; stroke-linejoin: miter; stroke-miterlimit: 4; fill: rgb(22,24,29); fill-rule: nonzero; opacity: 1;"  transform=" translate(-16.5, -7.5)" d="M 16.5 7 C 16.2239 7 16 7.22386 16 7.5 C 16 7.77614 16.2239 8 16.5 8 C 16.7761 8 17 7.77614 17 7.5 C 17 7.22386 16.7761 7 16.5 7 Z M 18 7.5 C 18 8.32843 17.3284 9 16.5 9 C 15.6716 9 15 8.32843 15 7.5 C 15 6.67157 15.6716 6 16.5 6 C 17.3284 6 18 6.67157 18 7.5 Z" stroke-linecap="round" /></g></g></g></svg>