<svg xmlns="http://www.w3.org/2000/svg" width="16" height="16"  viewBox="0 0 16 16"><g transform="matrix(1 0 0 1 0 0)"  ><g style=""   ><g transform="matrix(0.67 0 0 0.67 10 10)"  ><path style="stroke: none; stroke-width: 1; stroke-dasharray: none; stroke-linecap: butt; stroke-dashoffset: 0; stroke-linejoin: miter; stroke-miterlimit: 4; fill: rgb(23,25,28); fill-rule: nonzero; opacity: 1;"  transform=" translate(-15, -15)" d="M 21 10 C 21 9.44772 20.5523 9 20 9 L 10 9 C 9.44772 9 9 9.44772 9 10 L 9 20 C 9 20.5523 9.44772 21 10 21 L 20 21 C 20.5523 21 21 20.5523 21 20 L 21 10 Z M 23 20 C 23 21.6569 21.6569 23 20 23 L 10 23 C 8.34315 23 7 21.6569 7 20 L 7 10 C 7 8.34315 8.34315 7 10 7 L 20 7 C 21.6569 7 23 8.34315 23 10 L 23 20 Z" stroke-linecap="round" /></g><g transform="matrix(0.67 0 0 0.67 6 6)"  ><path style="stroke: none; stroke-width: 1; stroke-dasharray: none; stroke-linecap: butt; stroke-dashoffset: 0; stroke-linejoin: miter; stroke-miterlimit: 4; fill: rgb(23,25,28); fill-rule: nonzero; opacity: 1;"  transform=" translate(-9, -9)" d="M 15 4 C 15 3.45228 14.5477 3 14 3 L 4 3 C 3.45228 3 3 3.45228 3 4 L 3 14 C 3 14.5477 3.45228 15 4 15 C 4.55228 15 5 15.4477 5 16 C 5 16.5523 4.55228 17 4 17 C 2.34772 17 1 15.6523 1 14 L 1 4 C 1 2.34772 2.34772 1 4 1 L 14 1 C 15.6523 1 17 2.34772 17 4 C 17 4.55228 16.5523 5 16 5 C 15.4477 5 15 4.55228 15 4 Z" stroke-linecap="round" /></g></g></g></svg>