<svg xmlns="http://www.w3.org/2000/svg" width="16" height="16"  viewBox="0 0 16 16"><g transform="matrix(1 0 0 1 0 0)"  ><g style=""   ><g transform="matrix(0.67 0 0 0.67 8 5)"  ><path style="stroke: none; stroke-width: 1; stroke-dasharray: none; stroke-linecap: butt; stroke-dashoffset: 0; stroke-linejoin: miter; stroke-miterlimit: 4; fill: rgb(255,255,255); fill-rule: nonzero; opacity: 1;"  transform=" translate(-12, -7.5)" d="M 2 12 C 2 9.34784 3.05335 6.80407 4.92871 4.92871 C 6.80407 3.05335 9.34784 2 12 2 L 12.0039 2 L 12.5225 2.01465 C 14.9359 2.14027 17.2373 3.07585 19.0537 4.66992 L 19.4473 5.0332 L 21.707 7.29297 L 21.7754 7.36914 C 22.0957 7.76191 22.0731 8.34092 21.707 8.70703 C 21.3409 9.07315 20.7619 9.09574 20.3691 8.77539 L 20.293 8.70703 L 18.0449 6.45898 L 17.7344 6.17285 C 16.1505 4.78301 14.1137 4.00816 11.9971 4 C 9.87639 4.00078 7.84237 4.84317 6.34277 6.34277 C 4.84248 7.84306 4 9.87827 4 12 C 4 12.5523 3.55228 13 3 13 C 2.44772 13 2 12.5523 2 12 Z" stroke-linecap="round" /></g><g transform="matrix(0.67 0 0 0.67 12.33 3.67)"  ><path style="stroke: none; stroke-width: 1; stroke-dasharray: none; stroke-linecap: butt; stroke-dashoffset: 0; stroke-linejoin: miter; stroke-miterlimit: 4; fill: rgb(255,255,255); fill-rule: nonzero; opacity: 1;"  transform=" translate(-18.5, -5.5)" d="M 20 3 C 20 2.44772 20.4477 2 21 2 C 21.5523 2 22 2.44772 22 3 L 22 8 C 22 8.55228 21.5523 9 21 9 L 16 9 C 15.4477 9 15 8.55228 15 8 C 15 7.44772 15.4477 7 16 7 L 20 7 L 20 3 Z" stroke-linecap="round" /></g><g transform="matrix(0.67 0 0 0.67 8 11)"  ><path style="stroke: none; stroke-width: 1; stroke-dasharray: none; stroke-linecap: butt; stroke-dashoffset: 0; stroke-linejoin: miter; stroke-miterlimit: 4; fill: rgb(255,255,255); fill-rule: nonzero; opacity: 1;"  transform=" translate(-12, -16.5)" d="M 20 12 C 20 11.4477 20.4477 11 21 11 C 21.5523 11 22 11.4477 22 12 C 22 14.6522 20.9467 17.1959 19.0713 19.0713 C 17.1959 20.9467 14.6522 22 12 22 L 11.9961 22 C 9.39525 21.9902 6.89243 21.038 4.9463 19.3301 L 4.55274 18.9668 L 2.29298 16.707 L 2.22462 16.6309 C 1.90427 16.2381 1.92686 15.6591 2.29298 15.293 C 2.65909 14.9269 3.2381 14.9043 3.63087 15.2246 L 3.70704 15.293 L 5.95509 17.541 L 6.26563 17.8271 C 7.84923 19.2168 9.88572 19.9906 12.002 19.999 C 14.123 19.9985 16.1574 19.1571 17.6572 17.6572 C 19.1575 16.1569 20 14.1217 20 12 Z" stroke-linecap="round" /></g><g transform="matrix(0.67 0 0 0.67 3.67 12.33)"  ><path style="stroke: none; stroke-width: 1; stroke-dasharray: none; stroke-linecap: butt; stroke-dashoffset: 0; stroke-linejoin: miter; stroke-miterlimit: 4; fill: rgb(255,255,255); fill-rule: nonzero; opacity: 1;"  transform=" translate(-5.5, -18.5)" d="M 2 21 L 2 16 L 2.00488 15.8975 C 2.05621 15.3933 2.48232 15 3 15 L 8 15 C 8.55228 15 9 15.4477 9 16 C 9 16.5523 8.55228 17 8 17 L 4 17 L 4 21 C 4 21.5523 3.55228 22 3 22 C 2.44772 22 2 21.5523 2 21 Z" stroke-linecap="round" /></g></g></g></svg>