<svg xmlns="http://www.w3.org/2000/svg" width="16" height="16"  viewBox="0 0 16 16"><g transform="matrix(1 0 0 1 0 0)"  ><g style=""   ><g transform="matrix(0.67 0 0 0.67 8 8)"  ><path style="stroke: none; stroke-width: 1; stroke-dasharray: none; stroke-linecap: butt; stroke-dashoffset: 0; stroke-linejoin: miter; stroke-miterlimit: 4; fill: rgb(22,24,29); fill-rule: nonzero; opacity: 1;"  transform=" translate(-12, -12)" d="M 10 12 C 10 10.8954 10.8954 10 12 10 C 13.1046 10 14 10.8954 14 12 C 14 13.1046 13.1046 14 12 14 C 10.8954 14 10 13.1046 10 12 Z" stroke-linecap="round" /></g><g transform="matrix(0.67 0 0 0.67 8 3.33)"  ><path style="stroke: none; stroke-width: 1; stroke-dasharray: none; stroke-linecap: butt; stroke-dashoffset: 0; stroke-linejoin: miter; stroke-miterlimit: 4; fill: rgb(22,24,29); fill-rule: nonzero; opacity: 1;"  transform=" translate(-12, -5)" d="M 10 5 C 10 3.89543 10.8954 3 12 3 C 13.1046 3 14 3.89543 14 5 C 14 6.10457 13.1046 7 12 7 C 10.8954 7 10 6.10457 10 5 Z" stroke-linecap="round" /></g><g transform="matrix(0.67 0 0 0.67 8 12.67)"  ><path style="stroke: none; stroke-width: 1; stroke-dasharray: none; stroke-linecap: butt; stroke-dashoffset: 0; stroke-linejoin: miter; stroke-miterlimit: 4; fill: rgb(22,24,29); fill-rule: nonzero; opacity: 1;"  transform=" translate(-12, -19)" d="M 10 19 C 10 17.8954 10.8954 17 12 17 C 13.1046 17 14 17.8954 14 19 C 14 20.1046 13.1046 21 12 21 C 10.8954 21 10 20.1046 10 19 Z" stroke-linecap="round" /></g></g></g></svg>