<svg xmlns="http://www.w3.org/2000/svg" width="20" height="20"  viewBox="0 0 20 20"><g transform="matrix(1 0 0 1 0 0)"  ><g style=""   ><g transform="matrix(0.83 0 0 0.83 5.42 6.25)"  ><path style="stroke: none; stroke-width: 1; stroke-dasharray: none; stroke-linecap: butt; stroke-dashoffset: 0; stroke-linejoin: miter; stroke-miterlimit: 4; fill: rgb(87,94,107); fill-rule: nonzero; opacity: 1;"  transform=" translate(-6.5, -7.5)" d="M 4 4 L 4 11 L 9 11 L 9 4 L 4 4 Z M 11 11 C 11 12.1046 10.1046 13 9 13 L 4 13 C 2.89543 13 2 12.1046 2 11 L 2 4 C 2 2.89543 2.89543 2 4 2 L 9 2 C 10.1046 2 11 2.89543 11 4 L 11 11 Z" stroke-linecap="round" /></g><g transform="matrix(0.83 0 0 0.83 14.58 4.58)"  ><path style="stroke: none; stroke-width: 1; stroke-dasharray: none; stroke-linecap: butt; stroke-dashoffset: 0; stroke-linejoin: miter; stroke-miterlimit: 4; fill: rgb(87,94,107); fill-rule: nonzero; opacity: 1;"  transform=" translate(-17.5, -5.5)" d="M 15 4 L 15 7 L 20 7 L 20 4 L 15 4 Z M 22 7 C 22 8.10457 21.1046 9 20 9 L 15 9 C 13.8954 9 13 8.10457 13 7 L 13 4 C 13 2.89543 13.8954 2 15 2 L 20 2 C 21.1046 2 22 2.89543 22 4 L 22 7 Z" stroke-linecap="round" /></g><g transform="matrix(0.83 0 0 0.83 14.58 13.75)"  ><path style="stroke: none; stroke-width: 1; stroke-dasharray: none; stroke-linecap: butt; stroke-dashoffset: 0; stroke-linejoin: miter; stroke-miterlimit: 4; fill: rgb(87,94,107); fill-rule: nonzero; opacity: 1;"  transform=" translate(-17.5, -16.5)" d="M 15 13 L 15 20 L 20 20 L 20 13 L 15 13 Z M 22 20 C 22 21.1046 21.1046 22 20 22 L 15 22 C 13.8954 22 13 21.1046 13 20 L 13 13 C 13 11.8954 13.8954 11 15 11 L 20 11 C 21.1046 11 22 11.8954 22 13 L 22 20 Z" stroke-linecap="round" /></g><g transform="matrix(0.83 0 0 0.83 5.42 15.42)"  ><path style="stroke: none; stroke-width: 1; stroke-dasharray: none; stroke-linecap: butt; stroke-dashoffset: 0; stroke-linejoin: miter; stroke-miterlimit: 4; fill: rgb(87,94,107); fill-rule: nonzero; opacity: 1;"  transform=" translate(-6.5, -18.5)" d="M 4 17 L 4 20 L 9 20 L 9 17 L 4 17 Z M 11 20 C 11 21.1046 10.1046 22 9 22 L 4 22 C 2.89543 22 2 21.1046 2 20 L 2 17 C 2 15.8954 2.89543 15 4 15 L 9 15 C 10.1046 15 11 15.8954 11 17 L 11 20 Z" stroke-linecap="round" /></g></g></g></svg>