<svg xmlns="http://www.w3.org/2000/svg" width="16" height="16"  viewBox="0 0 16 16"><g transform="matrix(1 0 0 1 0 0)"  ><g style=""   ><g transform="matrix(0.67 0 0 0.67 12 4.67)"  ><path style="stroke: none; stroke-width: 1; stroke-dasharray: none; stroke-linecap: butt; stroke-dashoffset: 0; stroke-linejoin: miter; stroke-miterlimit: 4; fill: rgb(22,24,29); fill-rule: nonzero; opacity: 1;"  transform=" translate(-18, -7)" d="M 15.293 2.29298 C 15.6591 1.92686 16.2381 1.90427 16.6308 2.22462 L 16.707 2.29298 L 20.707 6.29298 L 20.7754 6.36915 C 21.0957 6.76192 21.0731 7.34092 20.707 7.70704 L 16.707 11.707 C 16.3165 12.0976 15.6835 12.0976 15.293 11.707 C 14.9024 11.3165 14.9024 10.6835 15.293 10.293 L 18.5859 7.00001 L 15.293 3.70704 L 15.2246 3.63087 C 14.9042 3.2381 14.9268 2.65909 15.293 2.29298 Z" stroke-linecap="round" /></g><g transform="matrix(0.67 0 0 0.67 8 4.67)"  ><path style="stroke: none; stroke-width: 1; stroke-dasharray: none; stroke-linecap: butt; stroke-dashoffset: 0; stroke-linejoin: miter; stroke-miterlimit: 4; fill: rgb(22,24,29); fill-rule: nonzero; opacity: 1;"  transform=" translate(-12, -7)" d="M 20 6 C 20.5523 6 21 6.44772 21 7 C 21 7.55228 20.5523 8 20 8 L 4 8 C 3.44772 8 3 7.55228 3 7 C 3 6.44772 3.44772 6 4 6 L 20 6 Z" stroke-linecap="round" /></g><g transform="matrix(0.67 0 0 0.67 4 11.33)"  ><path style="stroke: none; stroke-width: 1; stroke-dasharray: none; stroke-linecap: butt; stroke-dashoffset: 0; stroke-linejoin: miter; stroke-miterlimit: 4; fill: rgb(22,24,29); fill-rule: nonzero; opacity: 1;"  transform=" translate(-6, -17)" d="M 7.36913 12.2246 C 7.7619 11.9043 8.3409 11.9269 8.70702 12.293 C 9.07313 12.6591 9.09573 13.2381 8.77538 13.6309 L 8.70702 13.707 L 5.41405 17 L 8.70702 20.293 L 8.77538 20.3692 C 9.09573 20.7619 9.07313 21.3409 8.70702 21.707 C 8.3409 22.0732 7.7619 22.0958 7.36913 21.7754 L 7.29295 21.707 L 3.29295 17.707 C 2.90243 17.3165 2.90243 16.6835 3.29295 16.293 L 7.29295 12.293 L 7.36913 12.2246 Z" stroke-linecap="round" /></g><g transform="matrix(0.67 0 0 0.67 8 11.33)"  ><path style="stroke: none; stroke-width: 1; stroke-dasharray: none; stroke-linecap: butt; stroke-dashoffset: 0; stroke-linejoin: miter; stroke-miterlimit: 4; fill: rgb(22,24,29); fill-rule: nonzero; opacity: 1;"  transform=" translate(-12, -17)" d="M 20 16 C 20.5523 16 21 16.4477 21 17 C 21 17.5523 20.5523 18 20 18 L 4 18 C 3.44772 18 3 17.5523 3 17 C 3 16.4477 3.44772 16 4 16 L 20 16 Z" stroke-linecap="round" /></g></g></g></svg>