<svg xmlns="http://www.w3.org/2000/svg" width="16" height="16"  viewBox="0 0 16 16"><g transform="matrix(1 0 0 1 0 0)"  ><g style=""   ><g transform="matrix(0.67 0 0 0.67 10.33 4.67)"  ><path style="stroke: none; stroke-width: 1; stroke-dasharray: none; stroke-linecap: butt; stroke-dashoffset: 0; stroke-linejoin: miter; stroke-miterlimit: 4; fill: rgb(87,94,107); fill-rule: nonzero; opacity: 1;"  transform=" translate(-15.5, -7)" d="M 20 6 C 20.5523 6 21 6.44772 21 7 C 21 7.55228 20.5523 8 20 8 L 11 8 C 10.4477 8 10 7.55228 10 7 C 10 6.44772 10.4477 6 11 6 L 20 6 Z" stroke-linecap="round" /></g><g transform="matrix(0.67 0 0 0.67 6.33 11.33)"  ><path style="stroke: none; stroke-width: 1; stroke-dasharray: none; stroke-linecap: butt; stroke-dashoffset: 0; stroke-linejoin: miter; stroke-miterlimit: 4; fill: rgb(87,94,107); fill-rule: nonzero; opacity: 1;"  transform=" translate(-9.5, -17)" d="M 14 16 C 14.5523 16 15 16.4477 15 17 C 15 17.5523 14.5523 18 14 18 L 5 18 C 4.44772 18 4 17.5523 4 17 C 4 16.4477 4.44772 16 5 16 L 14 16 Z" stroke-linecap="round" /></g><g transform="matrix(0.67 0 0 0.67 11.33 11.33)"  ><path style="stroke: none; stroke-width: 1; stroke-dasharray: none; stroke-linecap: butt; stroke-dashoffset: 0; stroke-linejoin: miter; stroke-miterlimit: 4; fill: rgb(87,94,107); fill-rule: nonzero; opacity: 1;"  transform=" translate(-17, -17)" d="M 19 17 C 19 15.8954 18.1046 15 17 15 C 15.8954 15 15 15.8954 15 17 C 15 18.1046 15.8954 19 17 19 C 18.1046 19 19 18.1046 19 17 Z M 21 17 C 21 19.2091 19.2091 21 17 21 C 14.7909 21 13 19.2091 13 17 C 13 14.7909 14.7909 13 17 13 C 19.2091 13 21 14.7909 21 17 Z" stroke-linecap="round" /></g><g transform="matrix(0.67 0 0 0.67 4.67 4.67)"  ><path style="stroke: none; stroke-width: 1; stroke-dasharray: none; stroke-linecap: butt; stroke-dashoffset: 0; stroke-linejoin: miter; stroke-miterlimit: 4; fill: rgb(87,94,107); fill-rule: nonzero; opacity: 1;"  transform=" translate(-7, -7)" d="M 9 7 C 9 5.89543 8.10457 5 7 5 C 5.89543 5 5 5.89543 5 7 C 5 8.10457 5.89543 9 7 9 C 8.10457 9 9 8.10457 9 7 Z M 11 7 C 11 9.20914 9.20914 11 7 11 C 4.79086 11 3 9.20914 3 7 C 3 4.79086 4.79086 3 7 3 C 9.20914 3 11 4.79086 11 7 Z" stroke-linecap="round" /></g></g></g></svg>