<svg xmlns="http://www.w3.org/2000/svg" width="16" height="16"  viewBox="0 0 16 16"><g transform="matrix(1 0 0 1 0 0)"  ><g style=""   ><g transform="matrix(0.67 0 0 0.67 8 8)"  ><path style="stroke: none; stroke-width: 1; stroke-dasharray: none; stroke-linecap: butt; stroke-dashoffset: 0; stroke-linejoin: miter; stroke-miterlimit: 4; fill: rgb(53,57,64); fill-rule: nonzero; opacity: 1;"  transform=" translate(-12, -12)" d="M 21 12 C 21 7.02944 16.9706 3 12 3 C 7.02944 3 3 7.02944 3 12 C 3 16.9706 7.02944 21 12 21 C 16.9706 21 21 16.9706 21 12 Z M 23 12 C 23 18.0751 18.0751 23 12 23 C 5.92487 23 1 18.0751 1 12 C 1 5.92487 5.92487 1 12 1 C 18.0751 1 23 5.92487 23 12 Z" stroke-linecap="round" /></g><g transform="matrix(0.67 0 0 0.67 8 6.67)"  ><path style="stroke: none; stroke-width: 1; stroke-dasharray: none; stroke-linecap: butt; stroke-dashoffset: 0; stroke-linejoin: miter; stroke-miterlimit: 4; fill: rgb(53,57,64); fill-rule: nonzero; opacity: 1;"  transform=" translate(-12, -10)" d="M 9.89371 6.54728 C 10.708 6.0688 11.665 5.89357 12.5959 6.05314 C 13.5268 6.21282 14.3713 6.69686 14.9797 7.41936 C 15.5878 8.14175 15.9212 9.05616 15.9201 10.0004 L 15.9074 10.2807 C 15.7799 11.6553 14.7346 12.5759 13.9748 13.0824 C 13.5393 13.3727 13.1107 13.5857 12.7951 13.726 C 12.6358 13.7968 12.5011 13.8503 12.4045 13.8871 C 12.3562 13.9055 12.3168 13.92 12.2882 13.9301 C 12.2741 13.9351 12.2628 13.9398 12.2541 13.9428 C 12.2498 13.9443 12.2462 13.9457 12.2433 13.9467 C 12.242 13.9471 12.2404 13.9473 12.2394 13.9477 L 12.2375 13.9487 L 12.2365 13.9487 L 12.1379 13.976 C 11.6432 14.087 11.1346 13.8071 10.9709 13.3158 C 10.7968 12.7926 11.0791 12.2265 11.6017 12.0512 L 11.6017 12.0522 L 11.6037 12.0512 C 11.6063 12.0503 11.6113 12.0488 11.6183 12.0463 C 11.6336 12.0409 11.6591 12.0317 11.6925 12.019 C 11.76 11.9933 11.8606 11.953 11.9826 11.8988 C 12.2294 11.7892 12.5511 11.6279 12.8654 11.4184 C 13.5548 10.9588 13.9199 10.4694 13.9201 10.0004 L 13.9201 9.99846 L 13.9123 9.82268 C 13.8768 9.41368 13.7165 9.0237 13.4504 8.70744 C 13.1462 8.34611 12.7235 8.1037 12.258 8.02385 C 11.7925 7.94406 11.3135 8.03164 10.9064 8.27092 C 10.4993 8.51017 10.1901 8.88607 10.0334 9.33146 L 9.9943 9.42619 C 9.77873 9.88503 9.24648 10.1156 8.75797 9.94377 C 8.23707 9.76051 7.96352 9.1893 8.14664 8.66838 L 8.20914 8.50236 C 8.53842 7.68397 9.13033 6.99593 9.89371 6.54728 Z" stroke-linecap="round" /></g><g transform="matrix(0.67 0 0 0.67 8 11.33)"  ><path style="stroke: none; stroke-width: 1; stroke-dasharray: none; stroke-linecap: butt; stroke-dashoffset: 0; stroke-linejoin: miter; stroke-miterlimit: 4; fill: rgb(53,57,64); fill-rule: nonzero; opacity: 1;"  transform=" translate(-12, -17)" d="M 12.0098 16 L 12.1123 16.0049 C 12.6165 16.0561 13.0098 16.4822 13.0098 17 C 13.0098 17.5178 12.6165 17.9439 12.1123 17.9951 L 12.0098 18 L 12 18 C 11.4477 18 11 17.5523 11 17 C 11 16.4477 11.4477 16 12 16 L 12.0098 16 Z" stroke-linecap="round" /></g></g></g></svg>