<svg xmlns="http://www.w3.org/2000/svg" width="20" height="20"  viewBox="0 0 20 20"><g transform="matrix(1 0 0 1 0 0)"  ><g style=""   ><g transform="matrix(0.83 0 0 0.83 10 10)"  ><path style="stroke: none; stroke-width: 1; stroke-dasharray: none; stroke-linecap: butt; stroke-dashoffset: 0; stroke-linejoin: miter; stroke-miterlimit: 4; fill: rgb(11,37,69); fill-rule: nonzero; opacity: 1;"  transform=" translate(-12, -12)" d="M 16.3691 6.22461 C 16.7619 5.90426 17.3409 5.92685 17.707 6.29297 C 18.0731 6.65909 18.0957 7.23809 17.7754 7.63086 L 17.707 7.70703 L 7.70702 17.707 C 7.31649 18.0976 6.68348 18.0976 6.29295 17.707 C 5.90243 17.3165 5.90243 16.6835 6.29295 16.293 L 16.293 6.29297 L 16.3691 6.22461 Z" stroke-linecap="round" /></g><g transform="matrix(0.83 0 0 0.83 10 10)"  ><path style="stroke: none; stroke-width: 1; stroke-dasharray: none; stroke-linecap: butt; stroke-dashoffset: 0; stroke-linejoin: miter; stroke-miterlimit: 4; fill: rgb(11,37,69); fill-rule: nonzero; opacity: 1;"  transform=" translate(-12, -12)" d="M 6 7 C 6 6.44772 6.44772 6 7 6 C 7.55228 6 8 6.44772 8 7 L 8 16 L 17 16 C 17.5523 16 18 16.4477 18 17 C 18 17.5523 17.5523 18 17 18 L 7 18 C 6.44772 18 6 17.5523 6 17 L 6 7 Z" stroke-linecap="round" /></g></g></g></svg>