<svg xmlns="http://www.w3.org/2000/svg" width="16" height="16"  viewBox="0 0 16 16"><g transform="matrix(1 0 0 1 0 0)"  ><g style=""   ><g transform="matrix(0.67 0 0 0.67 12 3.33)"  ><path style="stroke: none; stroke-width: 1; stroke-dasharray: none; stroke-linecap: butt; stroke-dashoffset: 0; stroke-linejoin: miter; stroke-miterlimit: 4; fill: rgb(22,24,29); fill-rule: nonzero; opacity: 1;"  transform=" translate(-18, -5)" d="M 20 5 C 20 3.89543 19.1046 3 18 3 C 16.8954 3 16 3.89543 16 5 C 16 6.10457 16.8954 7 18 7 C 19.1046 7 20 6.10457 20 5 Z M 22 5 C 22 7.20914 20.2091 9 18 9 C 15.7909 9 14 7.20914 14 5 C 14 2.79086 15.7909 1 18 1 C 20.2091 1 22 2.79086 22 5 Z" stroke-linecap="round" /></g><g transform="matrix(0.67 0 0 0.67 4 8)"  ><path style="stroke: none; stroke-width: 1; stroke-dasharray: none; stroke-linecap: butt; stroke-dashoffset: 0; stroke-linejoin: miter; stroke-miterlimit: 4; fill: rgb(22,24,29); fill-rule: nonzero; opacity: 1;"  transform=" translate(-6, -12)" d="M 8 12 C 8 10.8954 7.10457 10 6 10 C 4.89543 10 4 10.8954 4 12 C 4 13.1046 4.89543 14 6 14 C 7.10457 14 8 13.1046 8 12 Z M 10 12 C 10 14.2091 8.20914 16 6 16 C 3.79086 16 2 14.2091 2 12 C 2 9.79086 3.79086 8 6 8 C 8.20914 8 10 9.79086 10 12 Z" stroke-linecap="round" /></g><g transform="matrix(0.67 0 0 0.67 12 12.67)"  ><path style="stroke: none; stroke-width: 1; stroke-dasharray: none; stroke-linecap: butt; stroke-dashoffset: 0; stroke-linejoin: miter; stroke-miterlimit: 4; fill: rgb(22,24,29); fill-rule: nonzero; opacity: 1;"  transform=" translate(-18, -19)" d="M 20 19 C 20 17.8954 19.1046 17 18 17 C 16.8954 17 16 17.8954 16 19 C 16 20.1046 16.8954 21 18 21 C 19.1046 21 20 20.1046 20 19 Z M 22 19 C 22 21.2091 20.2091 23 18 23 C 15.7909 23 14 21.2091 14 19 C 14 16.7909 15.7909 15 18 15 C 20.2091 15 22 16.7909 22 19 Z" stroke-linecap="round" /></g><g transform="matrix(0.67 0 0 0.67 8 10.33)"  ><path style="stroke: none; stroke-width: 1; stroke-dasharray: none; stroke-linecap: butt; stroke-dashoffset: 0; stroke-linejoin: miter; stroke-miterlimit: 4; fill: rgb(22,24,29); fill-rule: nonzero; opacity: 1;"  transform=" translate(-12.01, -15.5)" d="M 7.72574 13.0061 C 7.9864 12.559 8.54079 12.3895 9.00211 12.5989 L 9.0939 12.6457 L 15.923 16.6262 L 16.0089 16.6819 C 16.4189 16.9799 16.5449 17.546 16.2843 17.9934 C 16.0235 18.4409 15.4686 18.6106 15.007 18.4006 L 14.9162 18.3537 L 8.08609 14.3743 L 8.00113 14.3176 C 7.59122 14.0195 7.46505 13.4535 7.72574 13.0061 Z" stroke-linecap="round" /></g><g transform="matrix(0.67 0 0 0.67 8 5.67)"  ><path style="stroke: none; stroke-width: 1; stroke-dasharray: none; stroke-linecap: butt; stroke-dashoffset: 0; stroke-linejoin: miter; stroke-miterlimit: 4; fill: rgb(22,24,29); fill-rule: nonzero; opacity: 1;"  transform=" translate(-12, -8.5)" d="M 14.9972 5.59887 C 15.4585 5.38924 16.0127 5.55904 16.2736 6.00609 C 16.5345 6.45316 16.4096 7.01918 16.0002 7.31762 L 15.9142 7.37328 L 9.09392 11.3537 L 9.0031 11.4006 C 8.54191 11.6105 7.98781 11.4412 7.72673 10.9944 C 7.44836 10.5174 7.6091 9.90458 8.0861 9.62621 L 14.9064 5.64672 L 14.9972 5.59887 Z" stroke-linecap="round" /></g></g></g></svg>