<svg xmlns="http://www.w3.org/2000/svg" width="20" height="20"  viewBox="0 0 20 20"><g transform="matrix(1 0 0 1 0 0)"  ><g style=""   ><g transform="matrix(0.83 0 0 0.83 5 10)"  ><path style="stroke: none; stroke-width: 1; stroke-dasharray: none; stroke-linecap: butt; stroke-dashoffset: 0; stroke-linejoin: miter; stroke-miterlimit: 4; fill: rgb(87,94,107); fill-rule: nonzero; opacity: 1;"  transform=" translate(-6, -12)" d="M 2 19 L 2 5 C 2 4.20435 2.3163 3.44152 2.87891 2.87891 C 3.44152 2.3163 4.20435 2 5 2 L 9 2 C 9.55228 2 10 2.44772 10 3 C 10 3.55228 9.55228 4 9 4 L 5 4 C 4.73478 4 4.48051 4.10543 4.29297 4.29297 C 4.10543 4.48051 4 4.73478 4 5 L 4 19 C 4 19.2652 4.10543 19.5195 4.29297 19.707 C 4.48051 19.8946 4.73478 20 5 20 L 9 20 C 9.55228 20 10 20.4477 10 21 C 10 21.5523 9.55228 22 9 22 L 5 22 C 4.20435 22 3.44152 21.6837 2.87891 21.1211 C 2.3163 20.5585 2 19.7956 2 19 Z" stroke-linecap="round" /></g><g transform="matrix(0.83 0 0 0.83 15.42 10)"  ><path style="stroke: none; stroke-width: 1; stroke-dasharray: none; stroke-linecap: butt; stroke-dashoffset: 0; stroke-linejoin: miter; stroke-miterlimit: 4; fill: rgb(87,94,107); fill-rule: nonzero; opacity: 1;"  transform=" translate(-18.5, -12)" d="M 15.293 6.29298 C 15.6591 5.92686 16.2381 5.90427 16.6308 6.22462 L 16.707 6.29298 L 21.707 11.293 C 22.0975 11.6835 22.0975 12.3165 21.707 12.707 L 16.707 17.707 C 16.3165 18.0976 15.6835 18.0976 15.293 17.707 C 14.9024 17.3165 14.9024 16.6835 15.293 16.293 L 19.5859 12 L 15.293 7.70704 L 15.2246 7.63087 C 14.9042 7.2381 14.9268 6.65909 15.293 6.29298 Z" stroke-linecap="round" /></g><g transform="matrix(0.83 0 0 0.83 12.5 10)"  ><path style="stroke: none; stroke-width: 1; stroke-dasharray: none; stroke-linecap: butt; stroke-dashoffset: 0; stroke-linejoin: miter; stroke-miterlimit: 4; fill: rgb(87,94,107); fill-rule: nonzero; opacity: 1;"  transform=" translate(-15, -12)" d="M 21 11 C 21.5523 11 22 11.4477 22 12 C 22 12.5523 21.5523 13 21 13 L 9 13 C 8.44772 13 8 12.5523 8 12 C 8 11.4477 8.44772 11 9 11 L 21 11 Z" stroke-linecap="round" /></g></g></g></svg>