<svg xmlns="http://www.w3.org/2000/svg" width="16" height="16"  viewBox="0 0 16 16"><g transform="matrix(1 0 0 1 0 0)"  ><g style=""   ><g transform="matrix(0.67 0 0 0.67 8 8)"  ><path style="stroke: none; stroke-width: 1; stroke-dasharray: none; stroke-linecap: butt; stroke-dashoffset: 0; stroke-linejoin: miter; stroke-miterlimit: 4; fill: rgb(53,57,64); fill-rule: nonzero; opacity: 1;"  transform=" translate(-12, -12)" d="M 21 12 C 21 7.02944 16.9706 3 12 3 C 7.02944 3 3 7.02944 3 12 C 3 16.9706 7.02944 21 12 21 C 16.9706 21 21 16.9706 21 12 Z M 23 12 C 23 18.0751 18.0751 23 12 23 C 5.92487 23 1 18.0751 1 12 C 1 5.92487 5.92487 1 12 1 C 18.0751 1 23 5.92487 23 12 Z" stroke-linecap="round" /></g><g transform="matrix(0.67 0 0 0.67 4.7 4.7)"  ><path style="stroke: none; stroke-width: 1; stroke-dasharray: none; stroke-linecap: butt; stroke-dashoffset: 0; stroke-linejoin: miter; stroke-miterlimit: 4; fill: rgb(53,57,64); fill-rule: nonzero; opacity: 1;"  transform=" translate(-7.05, -7.05)" d="M 4.22291 4.22297 C 4.58903 3.85686 5.16803 3.83426 5.5608 4.15461 L 5.63697 4.22297 L 9.87721 8.46321 L 9.94557 8.5384 C 10.2662 8.93118 10.2434 9.51105 9.87721 9.87727 C 9.51099 10.2435 8.93112 10.2663 8.53834 9.94563 L 8.46314 9.87727 L 4.22291 5.63703 L 4.15455 5.56086 C 3.8342 5.16809 3.85679 4.58909 4.22291 4.22297 Z" stroke-linecap="round" /></g><g transform="matrix(0.67 0 0 0.67 11.3 4.7)"  ><path style="stroke: none; stroke-width: 1; stroke-dasharray: none; stroke-linecap: butt; stroke-dashoffset: 0; stroke-linejoin: miter; stroke-miterlimit: 4; fill: rgb(53,57,64); fill-rule: nonzero; opacity: 1;"  transform=" translate(-16.95, -7.05)" d="M 18.4383 4.15463 C 18.8311 3.8339 19.411 3.85673 19.7772 4.22299 C 20.1432 4.58907 20.1658 5.16815 19.8456 5.56088 L 19.7772 5.63705 L 15.537 9.87729 C 15.1465 10.2677 14.5134 10.2677 14.1229 9.87729 C 13.7324 9.4868 13.7325 8.85376 14.1229 8.46322 L 18.3631 4.22299 L 18.4383 4.15463 Z" stroke-linecap="round" /></g><g transform="matrix(0.67 0 0 0.67 11.3 11.3)"  ><path style="stroke: none; stroke-width: 1; stroke-dasharray: none; stroke-linecap: butt; stroke-dashoffset: 0; stroke-linejoin: miter; stroke-miterlimit: 4; fill: rgb(53,57,64); fill-rule: nonzero; opacity: 1;"  transform=" translate(-16.95, -16.95)" d="M 14.1229 14.123 C 14.4891 13.7569 15.0681 13.7343 15.4608 14.0546 L 15.537 14.123 L 19.7772 18.3632 L 19.8456 18.4384 C 20.1662 18.8312 20.1434 19.4111 19.7772 19.7773 C 19.411 20.1435 18.8311 20.1663 18.4384 19.8457 L 18.3632 19.7773 L 14.1229 15.5371 L 14.0546 15.4609 C 13.7342 15.0681 13.7568 14.4891 14.1229 14.123 Z" stroke-linecap="round" /></g><g transform="matrix(0.67 0 0 0.67 4.7 11.3)"  ><path style="stroke: none; stroke-width: 1; stroke-dasharray: none; stroke-linecap: butt; stroke-dashoffset: 0; stroke-linejoin: miter; stroke-miterlimit: 4; fill: rgb(53,57,64); fill-rule: nonzero; opacity: 1;"  transform=" translate(-7.05, -16.95)" d="M 8.46324 14.123 C 8.85378 13.7326 9.48682 13.7325 9.87731 14.123 C 10.2677 14.5135 10.2677 15.1465 9.87731 15.537 L 5.63707 19.7773 C 5.24658 20.1676 4.6135 20.1676 4.22301 19.7773 C 3.83253 19.3868 3.8326 18.7537 4.22301 18.3632 L 8.46324 14.123 Z" stroke-linecap="round" /></g><g transform="matrix(0.67 0 0 0.67 8 8)"  ><path style="stroke: none; stroke-width: 1; stroke-dasharray: none; stroke-linecap: butt; stroke-dashoffset: 0; stroke-linejoin: miter; stroke-miterlimit: 4; fill: rgb(53,57,64); fill-rule: nonzero; opacity: 1;"  transform=" translate(-12, -12)" d="M 15 12 C 15 10.3431 13.6569 9 12 9 C 10.3431 9 9 10.3431 9 12 C 9 13.6569 10.3431 15 12 15 C 13.6569 15 15 13.6569 15 12 Z M 17 12 C 17 14.7614 14.7614 17 12 17 C 9.23858 17 7 14.7614 7 12 C 7 9.23858 9.23858 7 12 7 C 14.7614 7 17 9.23858 17 12 Z" stroke-linecap="round" /></g></g></g></svg>