<svg xmlns="http://www.w3.org/2000/svg" width="16" height="16"  viewBox="0 0 16 16"><g transform="matrix(1 0 0 1 0 0)"  ><g style=""   ><g transform="matrix(0.67 0 0 0.67 8 8)"  ><path style="stroke: none; stroke-width: 1; stroke-dasharray: none; stroke-linecap: butt; stroke-dashoffset: 0; stroke-linejoin: miter; stroke-miterlimit: 4; fill: rgb(23,25,28); fill-rule: nonzero; opacity: 1;"  transform=" translate(-12, -12)" d="M 17.293 8.29302 C 17.6835 7.90249 18.3165 7.90249 18.707 8.29302 C 19.0976 8.68354 19.0976 9.31655 18.707 9.70708 L 12.707 15.7071 C 12.3165 16.0976 11.6835 16.0976 11.293 15.7071 L 5.29298 9.70708 L 5.22462 9.63091 C 4.90427 9.23813 4.92686 8.65913 5.29298 8.29302 C 5.65909 7.9269 6.2381 7.90431 6.63087 8.22466 L 6.70704 8.29302 L 12 13.586 L 17.293 8.29302 Z" stroke-linecap="round" /></g></g></g></svg>