<svg xmlns="http://www.w3.org/2000/svg" width="20" height="20"  viewBox="0 0 20 20"><g transform="matrix(1 0 0 1 0 0)"  ><g style=""   ><g transform="matrix(0.83 0 0 0.83 10 10)"  ><path style="stroke: none; stroke-width: 1; stroke-dasharray: none; stroke-linecap: butt; stroke-dashoffset: 0; stroke-linejoin: miter; stroke-miterlimit: 4; fill: rgb(53,57,64); fill-rule: nonzero; opacity: 1;"  transform=" translate(-12, -12)" d="M 15.6602 1.05958 C 15.9161 0.967056 16.2008 0.98225 16.4473 1.10548 L 18 1.88184 L 19.5527 1.10548 L 19.6719 1.05567 C 19.9539 0.957645 20.2676 0.99016 20.5254 1.14942 C 20.8202 1.33163 21 1.65343 21 2.00001 L 21 22 C 21 22.3466 20.8202 22.6684 20.5254 22.8506 C 20.2306 23.0327 19.8626 23.0495 19.5527 22.8945 L 18 22.1182 L 16.4473 22.8945 C 16.1657 23.0353 15.8343 23.0353 15.5527 22.8945 L 14 22.1182 L 12.4473 22.8945 C 12.1657 23.0353 11.8343 23.0353 11.5527 22.8945 L 10 22.1182 L 8.44727 22.8945 C 8.20081 23.0178 7.91613 23.033 7.66016 22.9404 L 7.55273 22.8945 L 6 22.1182 L 4.44727 22.8945 C 4.13735 23.0495 3.76939 23.0327 3.47461 22.8506 C 3.17979 22.6684 3 22.3466 3 22 L 3 2.00001 L 3.00781 1.8711 C 3.04626 1.57493 3.21672 1.30881 3.47461 1.14942 C 3.76939 0.967342 4.13735 0.950521 4.44727 1.10548 L 6 1.88184 L 7.55273 1.10548 L 7.66016 1.05958 C 7.91613 0.967056 8.20081 0.98225 8.44727 1.10548 L 10 1.88184 L 11.5527 1.10548 L 11.6602 1.05958 C 11.9161 0.967056 12.2008 0.98225 12.4473 1.10548 L 14 1.88184 L 15.5527 1.10548 L 15.6602 1.05958 Z M 14.4473 3.89454 C 14.2008 4.01777 13.9161 4.03296 13.6602 3.94044 L 13.5527 3.89454 L 12 3.11817 L 10.4473 3.89454 C 10.2008 4.01777 9.91613 4.03296 9.66016 3.94044 L 9.55273 3.89454 L 8 3.11817 L 6.44727 3.89454 C 6.20081 4.01777 5.91613 4.03296 5.66016 3.94044 L 5.55273 3.89454 L 5 3.61817 L 5 20.3818 L 5.55273 20.1055 L 5.66016 20.0596 C 5.91613 19.9671 6.20081 19.9822 6.44727 20.1055 L 8 20.8818 L 9.55273 20.1055 L 9.66016 20.0596 C 9.91613 19.9671 10.2008 19.9822 10.4473 20.1055 L 12 20.8818 L 13.5527 20.1055 L 13.6602 20.0596 C 13.9161 19.9671 14.2008 19.9822 14.4473 20.1055 L 16 20.8818 L 17.5527 20.1055 L 17.6602 20.0596 C 17.9161 19.9671 18.2008 19.9822 18.4473 20.1055 L 19 20.3818 L 19 3.61817 L 18.4473 3.89454 C 18.2008 4.01777 17.9161 4.03296 17.6602 3.94044 L 17.5527 3.89454 L 16 3.11817 L 14.4473 3.89454 Z" stroke-linecap="round" /></g><g transform="matrix(0.83 0 0 0.83 9.17 6.67)"  ><path style="stroke: none; stroke-width: 1; stroke-dasharray: none; stroke-linecap: butt; stroke-dashoffset: 0; stroke-linejoin: miter; stroke-miterlimit: 4; fill: rgb(53,57,64); fill-rule: nonzero; opacity: 1;"  transform=" translate(-11, -8)" d="M 14 7 C 14.5523 7 15 7.44772 15 8 C 15 8.55228 14.5523 9 14 9 L 8 9 C 7.44772 9 7 8.55228 7 8 C 7 7.44772 7.44772 7 8 7 L 14 7 Z" stroke-linecap="round" /></g><g transform="matrix(0.83 0 0 0.83 10 10)"  ><path style="stroke: none; stroke-width: 1; stroke-dasharray: none; stroke-linecap: butt; stroke-dashoffset: 0; stroke-linejoin: miter; stroke-miterlimit: 4; fill: rgb(53,57,64); fill-rule: nonzero; opacity: 1;"  transform=" translate(-12, -12)" d="M 16 11 C 16.5523 11 17 11.4477 17 12 C 17 12.5523 16.5523 13 16 13 L 8 13 C 7.44772 13 7 12.5523 7 12 C 7 11.4477 7.44772 11 8 11 L 16 11 Z" stroke-linecap="round" /></g><g transform="matrix(0.83 0 0 0.83 8.75 13.33)"  ><path style="stroke: none; stroke-width: 1; stroke-dasharray: none; stroke-linecap: butt; stroke-dashoffset: 0; stroke-linejoin: miter; stroke-miterlimit: 4; fill: rgb(53,57,64); fill-rule: nonzero; opacity: 1;"  transform=" translate(-10.5, -16)" d="M 13 15 C 13.5523 15 14 15.4477 14 16 C 14 16.5523 13.5523 17 13 17 L 8 17 C 7.44772 17 7 16.5523 7 16 C 7 15.4477 7.44772 15 8 15 L 13 15 Z" stroke-linecap="round" /></g></g></g></svg>