<svg xmlns="http://www.w3.org/2000/svg" width="16" height="16"  viewBox="0 0 16 16"><g transform="matrix(1 0 0 1 0 0)"  ><g style=""   ><g transform="matrix(0.67 0 0 0.67 8 11.33)"  ><path style="stroke: none; stroke-width: 1; stroke-dasharray: none; stroke-linecap: butt; stroke-dashoffset: 0; stroke-linejoin: miter; stroke-miterlimit: 4; fill: rgb(53,57,64); fill-rule: nonzero; opacity: 1;"  transform=" translate(-12, -17)" d="M 12.0098 16 L 12.1123 16.0049 C 12.6165 16.0561 13.0098 16.4822 13.0098 17 C 13.0098 17.5178 12.6165 17.9439 12.1123 17.9951 L 12.0098 18 L 12 18 C 11.4477 18 11 17.5523 11 17 C 11 16.4477 11.4477 16 12 16 L 12.0098 16 Z" stroke-linecap="round" /></g><g transform="matrix(0.67 0 0 0.67 8 8)"  ><path style="stroke: none; stroke-width: 1; stroke-dasharray: none; stroke-linecap: butt; stroke-dashoffset: 0; stroke-linejoin: miter; stroke-miterlimit: 4; fill: rgb(53,57,64); fill-rule: nonzero; opacity: 1;"  transform=" translate(-12, -12)" d="M 3 20 L 3 4 C 3 3.20435 3.3163 2.44152 3.87891 1.87891 C 4.44152 1.3163 5.20435 1 6 1 L 15 1 L 15.0986 1.00488 C 15.3276 1.02757 15.5429 1.12883 15.707 1.29297 L 20.707 6.29297 C 20.8946 6.48051 21 6.73478 21 7 L 21 20 C 21 20.7957 20.6837 21.5585 20.1211 22.1211 C 19.5585 22.6837 18.7957 23 18 23 L 6 23 C 5.20435 23 4.44152 22.6837 3.87891 22.1211 C 3.3163 21.5585 3 20.7956 3 20 Z M 5 20 C 5 20.2652 5.10543 20.5195 5.29297 20.707 C 5.48051 20.8946 5.73478 21 6 21 L 18 21 C 18.2652 21 18.5195 20.8946 18.707 20.707 C 18.8946 20.5195 19 20.2652 19 20 L 19 7.41406 L 14.5859 3 L 6 3 C 5.73478 3 5.48051 3.10543 5.29297 3.29297 C 5.10543 3.48051 5 3.73478 5 4 L 5 20 Z" stroke-linecap="round" /></g><g transform="matrix(0.67 0 0 0.67 8.01 6.67)"  ><path style="stroke: none; stroke-width: 1; stroke-dasharray: none; stroke-linecap: butt; stroke-dashoffset: 0; stroke-linejoin: miter; stroke-miterlimit: 4; fill: rgb(53,57,64); fill-rule: nonzero; opacity: 1;"  transform=" translate(-12.01, -10.01)" d="M 9.91056 6.56427 C 10.7216 6.09311 11.6727 5.92213 12.5971 6.08087 C 13.5215 6.2397 14.3609 6.71864 14.9682 7.43341 C 15.5755 8.14829 15.913 9.05402 15.9203 9.992 L 15.9203 9.99981 L 15.9066 10.2811 C 15.7789 11.6552 14.7347 12.5753 13.975 13.0818 C 13.5395 13.3722 13.111 13.5861 12.7953 13.7264 C 12.6361 13.7972 12.5013 13.8507 12.4047 13.8875 C 12.3564 13.9059 12.317 13.9203 12.2885 13.9305 C 12.2745 13.9354 12.263 13.9392 12.2543 13.9422 C 12.2499 13.9437 12.2456 13.9451 12.2426 13.9461 C 12.2412 13.9466 12.2397 13.9477 12.2387 13.9481 L 12.2367 13.9481 C 12.2348 13.9432 12.2129 13.8776 11.9203 12.9998 L 11.7709 12.5525 L 12.2358 13.949 C 11.712 14.1233 11.1457 13.84 10.9711 13.3162 C 10.7966 12.7926 11.0796 12.2265 11.6029 12.0516 C 11.6055 12.0507 11.6109 12.0484 11.6186 12.0457 C 11.6339 12.0402 11.6592 12.0312 11.6928 12.0184 C 11.7602 11.9927 11.8608 11.9525 11.9828 11.8983 C 12.2296 11.7885 12.5514 11.6273 12.8656 11.4178 C 13.5513 10.9606 13.9164 10.4744 13.9203 10.0076 L 13.9106 9.83282 C 13.8717 9.4271 13.7104 9.04109 13.4447 8.72833 C 13.1412 8.37098 12.7213 8.13206 12.2592 8.05255 C 11.7969 7.97312 11.321 8.05817 10.9154 8.29376 C 10.51 8.52927 10.2005 8.89995 10.0404 9.34063 C 9.8521 9.85969 9.27827 10.1284 8.75919 9.94024 C 8.2401 9.75189 7.97135 9.1781 8.15958 8.65899 C 8.47954 7.7772 9.09945 7.03549 9.91056 6.56427 Z" stroke-linecap="round" /></g></g></g></svg>