<svg xmlns="http://www.w3.org/2000/svg" width="16" height="16"  viewBox="0 0 16 16"><g transform="matrix(1 0 0 1 0 0)"  ><g style=""   ><g transform="matrix(0.67 0 0 0.67 8 5)"  ><path style="stroke: none; stroke-width: 1; stroke-dasharray: none; stroke-linecap: butt; stroke-dashoffset: 0; stroke-linejoin: miter; stroke-miterlimit: 4; fill: rgb(23,25,28); fill-rule: nonzero; opacity: 1;"  transform=" translate(-12, -7.5)" d="M 20 12 C 20 9.87827 19.1575 7.84306 17.6572 6.34277 C 16.1574 4.84294 14.123 4.00052 12.0019 4 C 9.7446 4.00896 7.57806 4.88999 5.95506 6.45898 L 3.70702 8.70703 C 3.31649 9.09756 2.68348 9.09756 2.29295 8.70703 C 1.90243 8.31651 1.90243 7.68349 2.29295 7.29297 L 4.55272 5.0332 L 4.94627 4.66992 C 6.89241 2.96203 9.39523 2.00982 11.9961 2 L 12 2 L 12.4961 2.0127 C 14.9676 2.13537 17.3132 3.17061 19.0713 4.92871 C 20.9466 6.80407 22 9.34784 22 12 C 22 12.5523 21.5523 13 21 13 C 20.4477 13 20 12.5523 20 12 Z" stroke-linecap="round" /></g><g transform="matrix(0.67 0 0 0.67 3.67 3.67)"  ><path style="stroke: none; stroke-width: 1; stroke-dasharray: none; stroke-linecap: butt; stroke-dashoffset: 0; stroke-linejoin: miter; stroke-miterlimit: 4; fill: rgb(23,25,28); fill-rule: nonzero; opacity: 1;"  transform=" translate(-5.5, -5.5)" d="M 2 3 C 2 2.44772 2.44772 2 3 2 C 3.55228 2 4 2.44772 4 3 L 4 7 L 8 7 C 8.55228 7 9 7.44772 9 8 C 9 8.55228 8.55228 9 8 9 L 3 9 C 2.44772 9 2 8.55228 2 8 L 2 3 Z" stroke-linecap="round" /></g><g transform="matrix(0.67 0 0 0.67 8 11)"  ><path style="stroke: none; stroke-width: 1; stroke-dasharray: none; stroke-linecap: butt; stroke-dashoffset: 0; stroke-linejoin: miter; stroke-miterlimit: 4; fill: rgb(23,25,28); fill-rule: nonzero; opacity: 1;"  transform=" translate(-12, -16.5)" d="M 2 12 C 2 11.4477 2.44772 11 3 11 C 3.55228 11 4 11.4477 4 12 C 4 14.1217 4.84248 16.1569 6.34277 17.6572 C 7.84237 19.1568 9.8764 19.9982 11.9971 19.999 C 14.2548 19.9903 16.4217 19.1102 18.0449 17.541 L 20.293 15.293 C 20.6835 14.9024 21.3165 14.9024 21.707 15.293 C 22.0976 15.6835 22.0976 16.3165 21.707 16.707 L 19.4473 18.9668 L 19.0537 19.3301 C 17.1076 21.038 14.6048 21.9902 12.0039 22 L 12 22 C 9.34784 22 6.80407 20.9467 4.92871 19.0713 C 3.05335 17.1959 2 14.6522 2 12 Z" stroke-linecap="round" /></g><g transform="matrix(0.67 0 0 0.67 12.33 12.33)"  ><path style="stroke: none; stroke-width: 1; stroke-dasharray: none; stroke-linecap: butt; stroke-dashoffset: 0; stroke-linejoin: miter; stroke-miterlimit: 4; fill: rgb(23,25,28); fill-rule: nonzero; opacity: 1;"  transform=" translate(-18.5, -18.5)" d="M 20 21 L 20 17 L 16 17 C 15.4477 17 15 16.5523 15 16 C 15 15.4477 15.4477 15 16 15 L 21 15 L 21.1025 15.0049 C 21.6067 15.0562 22 15.4823 22 16 L 22 21 C 22 21.5523 21.5523 22 21 22 C 20.4477 22 20 21.5523 20 21 Z" stroke-linecap="round" /></g></g></g></svg>